<svg xmlns="http://www.w3.org/2000/svg" xmlns:xlink="http://www.w3.org/1999/xlink" width="500" zoomAndPan="magnify" viewBox="0 0 375 374.999991" height="500" preserveAspectRatio="xMidYMid meet" version="1.0"><defs><filter x="0%" y="0%" width="100%" height="100%" id="5b7603568a"><feColorMatrix values="0 0 0 0 1 0 0 0 0 1 0 0 0 0 1 0 0 0 1 0" color-interpolation-filters="sRGB"/></filter><g/><clipPath id="44855a8ee7"><path d="M 31.601562 14.445312 L 343.601562 14.445312 L 343.601562 179 L 31.601562 179 Z M 31.601562 14.445312 " clip-rule="nonzero"/></clipPath><mask id="132ea39de4"><g filter="url(#5b7603568a)"><rect x="-37.5" width="450" fill="#000000" y="-37.499999" height="449.999989" fill-opacity="0.3"/></g></mask><clipPath id="c12a80f6e3"><path d="M 5 2 L 307 2 L 307 164.558594 L 5 164.558594 Z M 5 2 " clip-rule="nonzero"/></clipPath><clipPath id="66683f1bb4"><rect x="0" width="313" y="0" height="165"/></clipPath><clipPath id="88fdee77b7"><path d="M 203.457031 178.390625 L 331.125 178.390625 L 331.125 360.914062 L 203.457031 360.914062 Z M 203.457031 178.390625 " clip-rule="nonzero"/></clipPath><clipPath id="09943e2fdc"><path d="M 220.707031 178.390625 L 313.875 178.390625 C 323.402344 178.390625 331.125 186.113281 331.125 195.640625 L 331.125 343.304688 C 331.125 352.832031 323.402344 360.554688 313.875 360.554688 L 220.707031 360.554688 C 211.179688 360.554688 203.457031 352.832031 203.457031 343.304688 L 203.457031 195.640625 C 203.457031 186.113281 211.179688 178.390625 220.707031 178.390625 Z M 220.707031 178.390625 " clip-rule="nonzero"/></clipPath></defs><rect x="-37.5" width="450" fill="#ffffff" y="-37.499999" height="449.999989" fill-opacity="1"/><rect x="-37.5" width="450" fill="#ffffff" y="-37.499999" height="449.999989" fill-opacity="1"/><rect x="-37.5" width="450" fill="#3f51b5" y="-37.499999" height="449.999989" fill-opacity="1"/><path fill="#ffffff" d="M 219 323.777344 L 219 275.3125 C 219 255.6875 201.503906 240.152344 181.261719 243.445312 C 165.378906 246.027344 154.378906 260.945312 154.378906 277.039062 L 154.378906 323.777344 C 154.378906 332.699219 147.148438 339.933594 138.226562 339.933594 L 89.761719 339.933594 C 71.914062 339.933594 57.449219 325.46875 57.449219 307.621094 L 57.449219 196.777344 C 66.410156 200.523438 76.09375 202.617188 86.101562 202.617188 C 105.390625 202.617188 123.085938 195.109375 136.367188 182.835938 C 149.972656 195.285156 167.777344 202.617188 187.132812 202.617188 C 205.679688 202.617188 223.417969 195.285156 237.015625 182.839844 C 250.292969 195.109375 267.984375 202.617188 287.277344 202.617188 C 297.285156 202.617188 306.96875 200.527344 315.925781 196.777344 L 315.925781 307.621094 C 315.925781 325.46875 301.460938 339.933594 283.617188 339.933594 L 235.152344 339.933594 C 226.230469 339.933594 218.996094 332.699219 218.996094 323.777344 Z M 219 323.777344 " fill-opacity="1" fill-rule="nonzero"/><g clip-path="url(#44855a8ee7)"><g mask="url(#132ea39de4)"><g transform="matrix(1, 0, 0, 1, 31, 14)"><g clip-path="url(#66683f1bb4)"><g clip-path="url(#c12a80f6e3)"><path fill="#ffffff" d="M 6.09375 104.617188 L 21.253906 28.808594 C 24.277344 13.707031 37.535156 2.835938 52.9375 2.835938 L 258.441406 2.835938 C 273.84375 2.835938 287.101562 13.707031 290.121094 28.808594 L 305.28125 104.617188 C 311.464844 135.535156 287.816406 164.382812 256.285156 164.382812 C 229.976562 164.382812 208.175781 143.988281 206.425781 117.738281 L 205.730469 117.738281 C 204.015625 143.5625 182.757812 164.382812 156.128906 164.382812 L 155.25 164.382812 C 128.617188 164.382812 107.359375 143.5625 105.648438 117.738281 L 104.949219 117.738281 C 103.199219 143.988281 81.398438 164.382812 55.09375 164.382812 C 23.558594 164.382812 -0.0898438 135.535156 6.09375 104.617188 Z M 6.09375 104.617188 " fill-opacity="1" fill-rule="nonzero"/></g></g></g></g></g><g clip-path="url(#88fdee77b7)"><g clip-path="url(#09943e2fdc)"><path fill="#3f51b5" d="M 203.457031 178.390625 L 331.125 178.390625 L 331.125 360.414062 L 203.457031 360.414062 Z M 203.457031 178.390625 " fill-opacity="1" fill-rule="nonzero"/></g></g><path stroke-linecap="butt" transform="matrix(0.9575, 0, 0, 0.9575, 214.600082, 171.897454)" fill="none" stroke-linejoin="miter" d="M 18.776018 65.397549 C 18.988159 65.397549 19.188061 65.405708 19.367565 65.417947 C 19.542989 65.430186 19.922395 65.434266 20.493544 65.434266 L 22.570077 65.434266 L 22.570077 76.000516 L 20.028466 76.000516 C 19.64498 76.000516 19.334928 76.114746 19.098309 76.339126 C 18.857611 76.567585 18.686266 77.106097 18.576116 77.950581 C 18.470046 78.799145 18.400692 80.047512 18.363975 81.695684 C 18.327259 83.343856 18.31094 85.587655 18.31094 88.427079 C 18.31094 91.270584 18.261985 93.514382 18.164073 95.162554 C 18.070242 96.810726 17.841782 98.050934 17.486854 98.887259 C 17.127847 99.723584 16.597494 100.253936 15.891718 100.478316 C 15.185941 100.706776 14.239466 100.821005 13.044134 100.821005 C 12.232287 100.821005 11.538749 100.694537 10.9676 100.445679 C 10.392372 100.192742 9.910975 99.646071 9.515251 98.797507 C 9.123606 97.948944 8.813554 96.725054 8.585094 95.125837 C 8.356635 93.526621 8.181211 91.380734 8.046583 88.696335 C 7.916034 86.011936 7.834442 82.691115 7.797725 78.73795 C 7.761008 74.788865 7.74469 70.044252 7.74469 64.504109 C 7.74469 58.963967 7.761008 54.223433 7.797725 50.282508 C 7.834442 46.345662 7.916034 43.032999 8.046583 40.344521 C 8.181211 37.660122 8.356635 35.518315 8.585094 33.915019 C 8.813554 32.315802 9.123606 31.091912 9.515251 30.247428 C 9.910975 29.398865 10.392372 28.848114 10.9676 28.599257 C 11.538749 28.346319 12.232287 28.22393 13.044134 28.22393 C 13.855981 28.22393 14.541359 28.289204 15.104348 28.419753 C 15.663258 28.550301 16.140575 28.831796 16.5363 29.260157 C 16.932024 29.692598 17.242076 30.316782 17.466456 31.140868 C 17.694916 31.964954 17.874419 33.062375 18.004968 34.437212 C 18.135516 35.807969 18.221188 37.505096 18.253825 39.520435 C 18.290542 41.539853 18.31094 43.967235 18.31094 46.81074 C 18.31094 49.650165 18.31094 52.081626 18.31094 54.096965 C 18.31094 56.116383 18.31502 57.813511 18.327259 59.184268 C 18.339498 60.559104 18.355816 61.656525 18.380294 62.480611 C 18.404772 63.304697 18.433329 63.928881 18.470046 64.361322 C 18.506763 64.789684 18.547559 65.071179 18.596515 65.201727 C 18.64547 65.332275 18.702585 65.397549 18.776018 65.397549 Z M 20.134536 45.880583 C 20.134536 43.179866 20.175333 40.870794 20.261005 38.949286 C 20.342598 37.027779 20.518022 35.408165 20.779118 34.094523 C 21.040215 32.780881 21.4237 31.736495 21.925495 30.961364 C 22.42729 30.186234 23.108589 29.590607 23.965312 29.170405 C 24.826115 28.754283 25.88274 28.485027 27.135187 28.366717 C 28.391714 28.244328 29.88894 28.187214 31.630943 28.187214 C 33.397424 28.187214 34.902809 28.268806 36.143018 28.436071 C 37.387306 28.603336 38.435771 28.966424 39.296574 29.529413 C 40.157377 30.092402 40.834596 30.89609 41.336391 31.948635 C 41.838186 32.997101 42.221671 34.404575 42.482768 36.175136 C 42.747944 37.941617 42.919288 40.124221 43.004961 42.727027 C 43.086553 45.329833 43.12735 48.446673 43.12735 52.073467 C 43.12735 55.728818 43.082474 58.857897 42.984563 61.460703 C 42.890731 64.063509 42.690829 66.246113 42.393016 68.012594 C 42.095203 69.779075 41.654602 71.190629 41.067135 72.239094 C 40.483747 73.29164 39.700458 74.095327 38.721346 74.658317 C 37.742234 75.217227 36.538742 75.580314 35.106791 75.747579 C 33.674839 75.914844 31.953234 76.000516 29.950134 76.000516 L 16.373114 76.000516 L 16.373114 65.434266 L 24.683327 65.434266 C 26.474286 65.434266 27.893999 65.307797 28.946544 65.05894 C 29.99501 64.806002 30.790539 64.226694 31.32905 63.321016 C 31.863482 62.415337 32.206171 61.077217 32.348959 59.310736 C 32.491746 57.544255 32.561099 55.133192 32.561099 52.073467 C 32.561099 49.017821 32.55702 46.606758 32.544781 44.840277 C 32.532542 43.073796 32.491746 41.743835 32.418312 40.846316 C 32.348959 39.952876 32.251047 39.377648 32.132738 39.12879 C 32.014429 38.875853 31.847164 38.753464 31.630943 38.753464 C 31.414722 38.753464 31.251537 38.863614 31.129148 39.092073 C 31.010839 39.320533 30.917007 39.850885 30.843574 40.68721 C 30.77014 41.523535 30.729344 42.763743 30.717105 44.411915 C 30.704866 46.060087 30.700787 48.303886 30.700787 51.14331 C 30.700787 53.986815 30.651831 56.230613 30.557999 57.878785 C 30.460088 59.522877 30.235708 60.771245 29.876701 61.619809 C 29.517693 62.468372 28.987341 63.006884 28.281564 63.231264 C 27.579867 63.459723 26.629313 63.573953 25.43398 63.573953 C 24.622133 63.573953 23.932675 63.512759 23.357447 63.394449 C 22.786298 63.27206 22.300822 63.006884 21.909177 62.586682 C 21.513452 62.170559 21.2034 61.570853 20.974941 60.795723 C 20.750561 60.020592 20.571057 58.976206 20.440509 57.662564 C 20.305881 56.348922 20.224288 54.733388 20.187572 52.807801 C 20.150855 50.886293 20.134536 48.577221 20.134536 45.880583 Z M 31.630943 88.390363 C 30.415212 88.390363 29.452419 88.345487 28.746642 88.247576 C 28.044945 88.153744 27.514593 87.925284 27.155585 87.570356 C 26.796578 87.211349 26.568118 86.680996 26.474286 85.97522 C 26.380455 85.269443 26.331499 84.322968 26.331499 83.127636 C 26.331499 81.907825 26.380455 80.949111 26.474286 80.243335 C 26.568118 79.541638 26.796578 79.007206 27.155585 78.652278 C 27.514593 78.29327 28.044945 78.064811 28.746642 77.970979 C 29.452419 77.873068 30.415212 77.828192 31.630943 77.828192 C 32.826276 77.828192 33.772751 77.873068 34.478527 77.970979 C 35.184304 78.064811 35.714656 78.29327 36.073664 78.652278 C 36.432671 79.007206 36.657051 79.541638 36.754963 80.243335 C 36.848794 80.949111 36.89775 81.907825 36.89775 83.127636 C 36.89775 84.322968 36.848794 85.269443 36.754963 85.97522 C 36.657051 86.680996 36.432671 87.211349 36.073664 87.570356 C 35.714656 87.925284 35.184304 88.153744 34.478527 88.247576 C 33.772751 88.345487 32.826276 88.390363 31.630943 88.390363 Z M 57.271439 65.434266 L 58.956327 65.434266 L 58.956327 76.000516 L 51.971995 76.000516 C 50.923529 76.000516 50.013771 75.874048 49.250879 75.62519 C 48.487988 75.372253 47.847486 74.825582 47.333452 73.977018 C 46.819418 73.128454 46.407375 71.904564 46.097323 70.305348 C 45.787271 68.706132 45.550652 66.564324 45.383387 63.875846 C 45.216122 61.191447 45.105972 57.870626 45.061096 53.921541 C 45.01214 49.968376 44.987663 45.223762 44.987663 39.68362 C 44.987663 34.143478 45.008061 29.402944 45.040698 25.466098 C 45.077415 21.525172 45.163087 18.21251 45.293635 15.524032 C 45.424183 12.839633 45.603687 10.697825 45.832147 9.098609 C 46.056527 7.495313 46.366579 6.271423 46.762303 5.426939 C 47.153948 4.578375 47.639424 4.027625 48.210573 3.778767 C 48.785801 3.52583 49.479339 3.403441 50.291186 3.403441 C 51.103033 3.403441 51.788411 3.509511 52.347321 3.725732 C 52.910311 3.937873 53.387628 4.402951 53.779272 5.120967 C 54.174997 5.838982 54.485049 6.883368 54.713508 8.254125 C 54.937888 9.628961 55.117392 11.460717 55.24794 13.753471 C 55.382568 16.046225 55.464161 18.88157 55.500878 22.259506 C 55.537594 25.637443 55.553913 29.692598 55.553913 34.416814 C 55.553913 39.145109 55.562072 43.200264 55.570231 46.578201 C 55.58247 49.956137 55.606948 52.791482 55.643665 55.084236 C 55.680382 57.37699 55.737496 59.208745 55.823169 60.579502 C 55.904761 61.954339 56.006752 62.998725 56.129141 63.71674 C 56.247451 64.430676 56.402477 64.895754 56.594219 65.111975 C 56.781883 65.328195 57.010342 65.434266 57.271439 65.434266 Z M 62.717749 38.786101 C 61.497939 38.786101 60.539225 38.741225 59.833448 38.643314 C 59.127672 38.549482 58.597319 38.321023 58.238312 37.962015 C 57.879304 37.607087 57.654924 37.072655 57.557013 36.370958 C 57.463181 35.665181 57.414226 34.706468 57.414226 33.486657 C 57.414226 32.291325 57.463181 31.34485 57.557013 30.639073 C 57.654924 29.937376 57.879304 29.402944 58.238312 29.043937 C 58.597319 28.689008 59.127672 28.460549 59.833448 28.366717 C 60.539225 28.268806 61.497939 28.22393 62.717749 28.22393 C 63.909002 28.22393 64.859557 28.268806 65.565333 28.366717 C 66.26703 28.460549 66.797382 28.689008 67.15639 29.043937 C 67.515398 29.402944 67.743857 29.937376 67.837689 30.639073 C 67.93152 31.34485 67.980476 32.291325 67.980476 33.486657 C 67.980476 34.706468 67.93152 35.665181 67.837689 36.370958 C 67.743857 37.072655 67.515398 37.607087 67.15639 37.962015 C 66.797382 38.321023 66.26703 38.549482 65.565333 38.643314 C 64.859557 38.741225 63.909002 38.786101 62.717749 38.786101 Z M 62.717749 26.396255 C 61.497939 26.396255 60.539225 26.347299 59.833448 26.253467 C 59.127672 26.155556 58.597319 25.931176 58.238312 25.572169 C 57.879304 25.213161 57.654924 24.682809 57.557013 23.977032 C 57.463181 23.275335 57.414226 22.312542 57.414226 21.096811 C 57.414226 19.901478 57.463181 18.950924 57.557013 18.249227 C 57.654924 17.54345 57.879304 17.013098 58.238312 16.65409 C 58.597319 16.295082 59.127672 16.070703 59.833448 15.972791 C 60.539225 15.87896 61.497939 15.830004 62.717749 15.830004 C 63.909002 15.830004 64.859557 15.87896 65.565333 15.972791 C 66.26703 16.070703 66.797382 16.295082 67.15639 16.65409 C 67.515398 17.013098 67.743857 17.54345 67.837689 18.249227 C 67.93152 18.950924 67.980476 19.901478 67.980476 21.096811 C 67.980476 22.312542 67.93152 23.275335 67.837689 23.977032 C 67.743857 24.682809 67.515398 25.213161 67.15639 25.572169 C 66.797382 25.931176 66.26703 26.155556 65.565333 26.253467 C 64.859557 26.347299 63.909002 26.396255 62.717749 26.396255 Z M 53.044938 65.434266 L 55.6967 65.434266 C 56.080186 65.434266 56.390238 65.320036 56.626856 65.095656 C 56.867555 64.867197 57.038899 64.336845 57.14497 63.50052 C 57.25512 62.664195 57.324474 61.423986 57.36119 59.775814 C 57.397907 58.127643 57.414226 55.883844 57.414226 53.04034 C 57.414226 50.200915 57.463181 47.957117 57.557013 46.308945 C 57.654924 44.660773 57.879304 43.420564 58.238312 42.58424 C 58.597319 41.747915 59.127672 41.217562 59.833448 40.989103 C 60.539225 40.764723 61.497939 40.650493 62.717749 40.650493 C 63.909002 40.650493 64.859557 40.764723 65.565333 40.989103 C 66.26703 41.217562 66.797382 41.747915 67.15639 42.58424 C 67.515398 43.420564 67.743857 44.660773 67.837689 46.308945 C 67.93152 47.957117 67.980476 50.200915 67.980476 53.04034 C 67.980476 55.883844 68.000874 58.127643 68.033511 59.775814 C 68.070228 61.423986 68.143661 62.664195 68.249732 63.50052 C 68.355802 64.336845 68.523067 64.867197 68.751527 65.095656 C 68.975907 65.320036 69.281879 65.434266 69.665365 65.434266 L 73.031062 65.434266 L 73.031062 76.000516 L 53.044938 76.000516 Z M 81.267842 38.786101 C 81.051621 38.786101 80.884356 38.91257 80.766047 39.165507 C 80.647738 39.414364 80.549826 39.989593 80.480473 40.883032 C 80.407039 41.776472 80.366243 43.110512 80.354004 44.876994 C 80.341765 46.643475 80.337685 49.054538 80.337685 52.110183 C 80.337685 55.145431 80.341765 57.548335 80.354004 59.327055 C 80.366243 61.105775 80.407039 62.443895 80.480473 63.337334 C 80.549826 64.234854 80.647738 64.806002 80.766047 65.05894 C 80.884356 65.307797 81.051621 65.434266 81.267842 65.434266 C 81.484062 65.434266 81.651327 65.307797 81.769637 65.05894 C 81.887946 64.806002 81.977698 64.234854 82.038893 63.337334 C 82.096007 62.443895 82.132724 61.105775 82.144963 59.327055 C 82.157202 57.548335 82.161282 55.145431 82.161282 52.110183 C 82.161282 49.054538 82.157202 46.643475 82.144963 44.876994 C 82.132724 43.110512 82.096007 41.776472 82.038893 40.883032 C 81.977698 39.989593 81.887946 39.414364 81.769637 39.165507 C 81.651327 38.91257 81.484062 38.786101 81.267842 38.786101 Z M 66.258871 65.434266 L 68.086547 65.434266 C 68.351723 65.434266 68.572023 65.368992 68.751527 65.238443 C 68.931031 65.107895 69.086057 64.826401 69.216605 64.393959 C 69.347153 63.965598 69.449144 63.337334 69.518498 62.517328 C 69.591931 61.693242 69.644966 60.591741 69.681683 59.220984 C 69.7184 57.846148 69.742878 56.144941 69.751037 54.117363 C 69.763276 52.085706 69.771435 49.650165 69.771435 46.81074 C 69.771435 43.967235 69.812231 41.539853 69.897904 39.520435 C 69.979496 37.505096 70.150841 35.807969 70.416017 34.437212 C 70.677114 33.062375 71.060599 31.964954 71.562394 31.140868 C 72.064189 30.316782 72.741408 29.692598 73.602211 29.260157 C 74.463013 28.831796 75.519638 28.550301 76.772086 28.419753 C 78.024533 28.289204 79.525838 28.22393 81.267842 28.22393 C 83.009845 28.22393 84.507071 28.305523 85.763598 28.472788 C 87.016045 28.640053 88.064511 29.00314 88.913075 29.56613 C 89.761638 30.125039 90.434778 30.932807 90.936573 31.981273 C 91.438368 33.033818 91.821853 34.441291 92.08295 36.207773 C 92.348126 37.974254 92.519471 40.160937 92.601063 42.763743 C 92.686736 45.36655 92.727532 48.483389 92.727532 52.110183 C 92.727532 55.741057 92.682656 58.849738 92.584745 61.440305 C 92.490913 64.030872 92.291011 66.217555 91.993198 67.996276 C 91.695385 69.774996 91.254784 71.190629 90.667317 72.239094 C 90.083929 73.29164 89.308799 74.095327 88.341926 74.658317 C 87.375053 75.217227 86.17972 75.580314 84.760008 75.747579 C 83.340296 75.914844 81.62685 76.000516 79.61967 76.000516 L 66.258871 76.000516 Z M 66.258871 65.434266 " stroke="#000000" stroke-width="3.942686" stroke-opacity="1" stroke-miterlimit="4"/><g fill="#ffffff" fill-opacity="1"><g transform="translate(214.600082, 244.667474)"><g/></g></g><g fill="#ffffff" fill-opacity="1"><g transform="translate(217.857667, 244.667474)"><g/></g></g><g fill="#ffffff" fill-opacity="1"><g transform="translate(221.123053, 244.667474)"><g><path d="M 11.453125 -10.15625 C 11.660156 -10.15625 11.847656 -10.144531 12.015625 -10.125 C 12.191406 -10.113281 12.550781 -10.109375 13.09375 -10.109375 L 15.09375 -10.109375 L 15.09375 0 L 12.65625 0 C 12.289062 0 11.992188 0.109375 11.765625 0.328125 C 11.535156 0.546875 11.367188 1.0625 11.265625 1.875 C 11.160156 2.6875 11.09375 3.878906 11.0625 5.453125 C 11.03125 7.023438 11.015625 9.175781 11.015625 11.90625 C 11.015625 14.625 10.96875 16.769531 10.875 18.34375 C 10.78125 19.925781 10.5625 21.113281 10.21875 21.90625 C 9.875 22.707031 9.363281 23.21875 8.6875 23.4375 C 8.019531 23.65625 7.113281 23.765625 5.96875 23.765625 C 5.1875 23.765625 4.519531 23.644531 3.96875 23.40625 C 3.425781 23.164062 2.960938 22.640625 2.578125 21.828125 C 2.203125 21.015625 1.90625 19.84375 1.6875 18.3125 C 1.476562 16.78125 1.3125 14.726562 1.1875 12.15625 C 1.0625 9.582031 0.976562 6.40625 0.9375 2.625 C 0.90625 -1.15625 0.890625 -5.703125 0.890625 -11.015625 C 0.890625 -16.316406 0.90625 -20.851562 0.9375 -24.625 C 0.976562 -28.394531 1.0625 -31.566406 1.1875 -34.140625 C 1.3125 -36.710938 1.476562 -38.765625 1.6875 -40.296875 C 1.90625 -41.828125 2.203125 -43 2.578125 -43.8125 C 2.960938 -44.625 3.425781 -45.148438 3.96875 -45.390625 C 4.519531 -45.628906 5.1875 -45.75 5.96875 -45.75 C 6.75 -45.75 7.40625 -45.6875 7.9375 -45.5625 C 8.476562 -45.4375 8.9375 -45.164062 9.3125 -44.75 C 9.6875 -44.34375 9.984375 -43.742188 10.203125 -42.953125 C 10.421875 -42.160156 10.59375 -41.109375 10.71875 -39.796875 C 10.84375 -38.484375 10.921875 -36.859375 10.953125 -34.921875 C 10.992188 -32.992188 11.015625 -30.671875 11.015625 -27.953125 C 11.015625 -25.234375 11.015625 -22.90625 11.015625 -20.96875 C 11.015625 -19.039062 11.019531 -17.414062 11.03125 -16.09375 C 11.039062 -14.78125 11.054688 -13.726562 11.078125 -12.9375 C 11.097656 -12.15625 11.125 -11.554688 11.15625 -11.140625 C 11.195312 -10.734375 11.238281 -10.46875 11.28125 -10.34375 C 11.320312 -10.21875 11.378906 -10.15625 11.453125 -10.15625 Z M 11.453125 -10.15625 "/></g></g></g><g fill="#ffffff" fill-opacity="1"><g transform="translate(233.021808, 244.667474)"><g><path d="M 0.859375 -28.84375 C 0.859375 -31.425781 0.894531 -33.632812 0.96875 -35.46875 C 1.050781 -37.3125 1.21875 -38.863281 1.46875 -40.125 C 1.726562 -41.382812 2.097656 -42.382812 2.578125 -43.125 C 3.054688 -43.863281 3.707031 -44.429688 4.53125 -44.828125 C 5.351562 -45.234375 6.363281 -45.492188 7.5625 -45.609375 C 8.757812 -45.722656 10.191406 -45.78125 11.859375 -45.78125 C 13.554688 -45.78125 15 -45.695312 16.1875 -45.53125 C 17.375 -45.375 18.378906 -45.023438 19.203125 -44.484375 C 20.023438 -43.953125 20.675781 -43.179688 21.15625 -42.171875 C 21.632812 -41.171875 22 -39.820312 22.25 -38.125 C 22.507812 -36.4375 22.675781 -34.347656 22.75 -31.859375 C 22.832031 -29.367188 22.875 -26.382812 22.875 -22.90625 C 22.875 -19.40625 22.828125 -16.410156 22.734375 -13.921875 C 22.640625 -11.429688 22.453125 -9.335938 22.171875 -7.640625 C 21.890625 -5.953125 21.46875 -4.601562 20.90625 -3.59375 C 20.34375 -2.59375 19.59375 -1.820312 18.65625 -1.28125 C 17.71875 -0.75 16.5625 -0.398438 15.1875 -0.234375 C 13.820312 -0.078125 12.175781 0 10.25 0 L -2.75 0 L -2.75 -10.109375 L 5.21875 -10.109375 C 6.925781 -10.109375 8.28125 -10.226562 9.28125 -10.46875 C 10.289062 -10.71875 11.050781 -11.273438 11.5625 -12.140625 C 12.082031 -13.003906 12.410156 -14.28125 12.546875 -15.96875 C 12.679688 -17.664062 12.75 -19.976562 12.75 -22.90625 C 12.75 -25.832031 12.742188 -28.140625 12.734375 -29.828125 C 12.722656 -31.523438 12.679688 -32.800781 12.609375 -33.65625 C 12.546875 -34.519531 12.457031 -35.070312 12.34375 -35.3125 C 12.226562 -35.550781 12.066406 -35.671875 11.859375 -35.671875 C 11.660156 -35.671875 11.503906 -35.5625 11.390625 -35.34375 C 11.273438 -35.125 11.179688 -34.613281 11.109375 -33.8125 C 11.046875 -33.007812 11.003906 -31.816406 10.984375 -30.234375 C 10.972656 -28.660156 10.96875 -26.515625 10.96875 -23.796875 C 10.96875 -21.078125 10.921875 -18.925781 10.828125 -17.34375 C 10.742188 -15.769531 10.53125 -14.578125 10.1875 -13.765625 C 9.84375 -12.953125 9.332031 -12.4375 8.65625 -12.21875 C 7.976562 -12.007812 7.070312 -11.90625 5.9375 -11.90625 C 5.15625 -11.90625 4.488281 -11.960938 3.9375 -12.078125 C 3.394531 -12.191406 2.929688 -12.445312 2.546875 -12.84375 C 2.171875 -13.238281 1.875 -13.804688 1.65625 -14.546875 C 1.445312 -15.296875 1.273438 -16.296875 1.140625 -17.546875 C 1.015625 -18.804688 0.9375 -20.359375 0.90625 -22.203125 C 0.875 -24.046875 0.859375 -26.257812 0.859375 -28.84375 Z M 11.859375 11.859375 C 10.691406 11.859375 9.769531 11.8125 9.09375 11.71875 C 8.425781 11.632812 7.921875 11.421875 7.578125 11.078125 C 7.234375 10.734375 7.015625 10.222656 6.921875 9.546875 C 6.835938 8.878906 6.796875 7.972656 6.796875 6.828125 C 6.796875 5.660156 6.835938 4.738281 6.921875 4.0625 C 7.015625 3.382812 7.234375 2.875 7.578125 2.53125 C 7.921875 2.1875 8.425781 1.96875 9.09375 1.875 C 9.769531 1.789062 10.691406 1.75 11.859375 1.75 C 13.003906 1.75 13.914062 1.789062 14.59375 1.875 C 15.269531 1.96875 15.773438 2.1875 16.109375 2.53125 C 16.453125 2.875 16.671875 3.382812 16.765625 4.0625 C 16.859375 4.738281 16.90625 5.660156 16.90625 6.828125 C 16.90625 7.972656 16.859375 8.878906 16.765625 9.546875 C 16.671875 10.222656 16.453125 10.734375 16.109375 11.078125 C 15.773438 11.421875 15.269531 11.632812 14.59375 11.71875 C 13.914062 11.8125 13.003906 11.859375 11.859375 11.859375 Z M 11.859375 11.859375 "/></g></g></g><g fill="#ffffff" fill-opacity="1"><g transform="translate(256.785029, 244.667474)"><g><path d="M 12.65625 -10.109375 L 14.265625 -10.109375 L 14.265625 0 L 7.578125 0 C 6.566406 0 5.695312 -0.117188 4.96875 -0.359375 C 4.238281 -0.597656 3.628906 -1.125 3.140625 -1.9375 C 2.648438 -2.75 2.253906 -3.921875 1.953125 -5.453125 C 1.660156 -6.984375 1.429688 -9.035156 1.265625 -11.609375 C 1.109375 -14.179688 1.003906 -17.359375 0.953125 -21.140625 C 0.910156 -24.921875 0.890625 -29.46875 0.890625 -34.78125 C 0.890625 -40.082031 0.90625 -44.617188 0.9375 -48.390625 C 0.976562 -52.160156 1.0625 -55.332031 1.1875 -57.90625 C 1.3125 -60.476562 1.476562 -62.53125 1.6875 -64.0625 C 1.90625 -65.59375 2.203125 -66.765625 2.578125 -67.578125 C 2.960938 -68.390625 3.425781 -68.914062 3.96875 -69.15625 C 4.519531 -69.394531 5.1875 -69.515625 5.96875 -69.515625 C 6.75 -69.515625 7.40625 -69.410156 7.9375 -69.203125 C 8.476562 -68.992188 8.9375 -68.546875 9.3125 -67.859375 C 9.6875 -67.179688 9.984375 -66.179688 10.203125 -64.859375 C 10.421875 -63.546875 10.59375 -61.789062 10.71875 -59.59375 C 10.84375 -57.40625 10.921875 -54.691406 10.953125 -51.453125 C 10.992188 -48.222656 11.015625 -44.34375 11.015625 -39.8125 C 11.015625 -35.289062 11.019531 -31.410156 11.03125 -28.171875 C 11.039062 -24.929688 11.0625 -22.210938 11.09375 -20.015625 C 11.125 -17.828125 11.179688 -16.078125 11.265625 -14.765625 C 11.347656 -13.453125 11.445312 -12.453125 11.5625 -11.765625 C 11.675781 -11.078125 11.820312 -10.628906 12 -10.421875 C 12.1875 -10.210938 12.40625 -10.109375 12.65625 -10.109375 Z M 12.65625 -10.109375 "/></g></g></g><g fill="#ffffff" fill-opacity="1"><g transform="translate(268.683784, 244.667474)"><g><path d="M 5.96875 -35.625 C 4.800781 -35.625 3.878906 -35.671875 3.203125 -35.765625 C 2.523438 -35.859375 2.015625 -36.078125 1.671875 -36.421875 C 1.335938 -36.765625 1.125 -37.269531 1.03125 -37.9375 C 0.9375 -38.613281 0.890625 -39.535156 0.890625 -40.703125 C 0.890625 -41.847656 0.9375 -42.753906 1.03125 -43.421875 C 1.125 -44.097656 1.335938 -44.609375 1.671875 -44.953125 C 2.015625 -45.296875 2.523438 -45.515625 3.203125 -45.609375 C 3.878906 -45.703125 4.800781 -45.75 5.96875 -45.75 C 7.113281 -45.75 8.019531 -45.703125 8.6875 -45.609375 C 9.363281 -45.515625 9.875 -45.296875 10.21875 -44.953125 C 10.5625 -44.609375 10.78125 -44.097656 10.875 -43.421875 C 10.96875 -42.753906 11.015625 -41.847656 11.015625 -40.703125 C 11.015625 -39.535156 10.96875 -38.613281 10.875 -37.9375 C 10.78125 -37.269531 10.5625 -36.765625 10.21875 -36.421875 C 9.875 -36.078125 9.363281 -35.859375 8.6875 -35.765625 C 8.019531 -35.671875 7.113281 -35.625 5.96875 -35.625 Z M 5.96875 -47.5 C 4.800781 -47.5 3.878906 -47.539062 3.203125 -47.625 C 2.523438 -47.71875 2.015625 -47.9375 1.671875 -48.28125 C 1.335938 -48.625 1.125 -49.132812 1.03125 -49.8125 C 0.9375 -50.488281 0.890625 -51.410156 0.890625 -52.578125 C 0.890625 -53.710938 0.9375 -54.617188 1.03125 -55.296875 C 1.125 -55.972656 1.335938 -56.484375 1.671875 -56.828125 C 2.015625 -57.171875 2.523438 -57.382812 3.203125 -57.46875 C 3.878906 -57.5625 4.800781 -57.609375 5.96875 -57.609375 C 7.113281 -57.609375 8.019531 -57.5625 8.6875 -57.46875 C 9.363281 -57.382812 9.875 -57.171875 10.21875 -56.828125 C 10.5625 -56.484375 10.78125 -55.972656 10.875 -55.296875 C 10.96875 -54.617188 11.015625 -53.710938 11.015625 -52.578125 C 11.015625 -51.410156 10.96875 -50.488281 10.875 -49.8125 C 10.78125 -49.132812 10.5625 -48.625 10.21875 -48.28125 C 9.875 -47.9375 9.363281 -47.71875 8.6875 -47.625 C 8.019531 -47.539062 7.113281 -47.5 5.96875 -47.5 Z M -3.296875 -10.109375 L -0.75 -10.109375 C -0.382812 -10.109375 -0.0859375 -10.21875 0.140625 -10.4375 C 0.367188 -10.65625 0.53125 -11.164062 0.625 -11.96875 C 0.726562 -12.769531 0.796875 -13.957031 0.828125 -15.53125 C 0.867188 -17.113281 0.890625 -19.265625 0.890625 -21.984375 C 0.890625 -24.703125 0.9375 -26.847656 1.03125 -28.421875 C 1.125 -30.003906 1.335938 -31.195312 1.671875 -32 C 2.015625 -32.800781 2.523438 -33.304688 3.203125 -33.515625 C 3.878906 -33.734375 4.800781 -33.84375 5.96875 -33.84375 C 7.113281 -33.84375 8.019531 -33.734375 8.6875 -33.515625 C 9.363281 -33.304688 9.875 -32.800781 10.21875 -32 C 10.5625 -31.195312 10.78125 -30.003906 10.875 -28.421875 C 10.96875 -26.847656 11.015625 -24.703125 11.015625 -21.984375 C 11.015625 -19.265625 11.03125 -17.113281 11.0625 -15.53125 C 11.09375 -13.957031 11.160156 -12.769531 11.265625 -11.96875 C 11.367188 -11.164062 11.53125 -10.65625 11.75 -10.4375 C 11.96875 -10.21875 12.257812 -10.109375 12.625 -10.109375 L 15.84375 -10.109375 L 15.84375 0 L -3.296875 0 Z M -3.296875 -10.109375 "/></g></g></g><g fill="#ffffff" fill-opacity="1"><g transform="translate(280.548249, 244.667474)"><g><path d="M 11.859375 -35.625 C 11.660156 -35.625 11.503906 -35.503906 11.390625 -35.265625 C 11.273438 -35.023438 11.179688 -34.476562 11.109375 -33.625 C 11.046875 -32.769531 11.003906 -31.492188 10.984375 -29.796875 C 10.972656 -28.109375 10.96875 -25.800781 10.96875 -22.875 C 10.96875 -19.96875 10.972656 -17.660156 10.984375 -15.953125 C 11.003906 -14.253906 11.046875 -12.976562 11.109375 -12.125 C 11.179688 -11.269531 11.273438 -10.71875 11.390625 -10.46875 C 11.503906 -10.226562 11.660156 -10.109375 11.859375 -10.109375 C 12.066406 -10.109375 12.226562 -10.226562 12.34375 -10.46875 C 12.457031 -10.71875 12.539062 -11.269531 12.59375 -12.125 C 12.65625 -12.976562 12.691406 -14.253906 12.703125 -15.953125 C 12.710938 -17.660156 12.71875 -19.96875 12.71875 -22.875 C 12.71875 -25.800781 12.710938 -28.109375 12.703125 -29.796875 C 12.691406 -31.492188 12.65625 -32.769531 12.59375 -33.625 C 12.539062 -34.476562 12.457031 -35.023438 12.34375 -35.265625 C 12.226562 -35.503906 12.066406 -35.625 11.859375 -35.625 Z M -2.5 -10.109375 L -0.75 -10.109375 C -0.5 -10.109375 -0.285156 -10.171875 -0.109375 -10.296875 C 0.0546875 -10.429688 0.203125 -10.703125 0.328125 -11.109375 C 0.453125 -11.523438 0.546875 -12.125 0.609375 -12.90625 C 0.679688 -13.695312 0.734375 -14.75 0.765625 -16.0625 C 0.804688 -17.375 0.832031 -19.003906 0.84375 -20.953125 C 0.851562 -22.898438 0.859375 -25.234375 0.859375 -27.953125 C 0.859375 -30.671875 0.894531 -32.992188 0.96875 -34.921875 C 1.050781 -36.859375 1.21875 -38.484375 1.46875 -39.796875 C 1.726562 -41.109375 2.097656 -42.160156 2.578125 -42.953125 C 3.054688 -43.742188 3.707031 -44.34375 4.53125 -44.75 C 5.351562 -45.164062 6.363281 -45.4375 7.5625 -45.5625 C 8.757812 -45.6875 10.191406 -45.75 11.859375 -45.75 C 13.535156 -45.75 14.972656 -45.664062 16.171875 -45.5 C 17.367188 -45.34375 18.375 -44.992188 19.1875 -44.453125 C 20 -43.921875 20.644531 -43.148438 21.125 -42.140625 C 21.601562 -41.140625 21.96875 -39.789062 22.21875 -38.09375 C 22.46875 -36.40625 22.632812 -34.316406 22.71875 -31.828125 C 22.800781 -29.335938 22.84375 -26.351562 22.84375 -22.875 C 22.84375 -19.394531 22.796875 -16.414062 22.703125 -13.9375 C 22.609375 -11.457031 22.414062 -9.363281 22.125 -7.65625 C 21.84375 -5.957031 21.421875 -4.601562 20.859375 -3.59375 C 20.304688 -2.59375 19.566406 -1.820312 18.640625 -1.28125 C 17.710938 -0.75 16.566406 -0.398438 15.203125 -0.234375 C 13.847656 -0.078125 12.207031 0 10.28125 0 L -2.5 0 Z M -2.5 -10.109375 "/></g></g></g><g fill="#ffffff" fill-opacity="1"><g transform="translate(304.290928, 244.667474)"><g/></g></g><g fill="#ffffff" fill-opacity="1"><g transform="translate(307.548512, 244.667474)"><g/></g></g><path stroke-linecap="butt" transform="matrix(1.164717, 0, 0, 1.164717, 170.374445, 256.45765)" fill="none" stroke-linejoin="miter" d="M 10.045167 52.999887 C 8.61644 52.999887 7.392296 52.939519 6.372734 52.822135 C 5.353173 52.701397 4.494595 52.443153 3.797001 52.044049 C 3.10276 51.644944 2.546026 51.071441 2.130152 50.323539 C 1.710924 49.575637 1.399019 48.572845 1.184375 47.315162 C 0.973084 46.05748 0.832224 44.501307 0.765147 42.649999 C 0.698071 40.79869 0.661179 38.578461 0.661179 35.99602 C 0.661179 33.396809 0.691363 31.173226 0.751732 29.328625 C 0.812101 27.484024 0.936192 25.93456 1.120652 24.676877 C 1.308466 23.419195 1.580125 22.416402 1.938984 21.6685 C 2.294489 20.920599 2.777439 20.347095 3.391188 19.947991 C 4.001584 19.548886 4.752839 19.290642 5.648309 19.169905 C 6.540425 19.052521 7.60694 18.992152 8.8445 18.992152 C 10.085413 18.992152 11.151928 19.039106 12.044044 19.133012 C 12.93616 19.226919 13.684062 19.424795 14.28775 19.729992 C 14.891437 20.038544 15.371034 20.484602 15.729892 21.068167 C 16.085397 21.655085 16.357057 22.436525 16.544871 23.415841 C 16.732684 24.391802 16.856776 25.599178 16.913791 27.034613 C 16.974159 28.470048 17.004344 30.200619 17.004344 32.222972 C 17.004344 34.245326 17.007698 35.979251 17.017759 37.424747 C 17.024467 38.86689 17.041236 40.077619 17.068066 41.056934 C 17.091543 42.032896 17.135143 42.814336 17.195512 43.401254 C 17.25588 43.988173 17.326311 44.434231 17.410156 44.739429 C 17.497355 45.044626 17.608031 45.245855 17.742184 45.339762 C 17.879691 45.433669 18.040674 45.480623 18.228488 45.480623 L 19.476109 45.480623 L 19.476109 52.999887 Z M 8.8445 45.480623 C 8.998775 45.480623 9.119513 45.39007 9.203358 45.212317 C 9.287204 45.034565 9.357634 44.622045 9.407941 43.974758 C 9.458249 43.330824 9.488433 42.378339 9.495141 41.120657 C 9.505202 39.862974 9.508556 38.145818 9.508556 35.969189 C 9.508556 33.795914 9.505202 32.078758 9.495141 30.821075 C 9.488433 29.563393 9.458249 28.614262 9.407941 27.977036 C 9.357634 27.33981 9.287204 26.933998 9.203358 26.756245 C 9.119513 26.575139 8.998775 26.48794 8.8445 26.48794 C 8.693578 26.48794 8.57284 26.575139 8.488995 26.756245 C 8.405149 26.933998 8.334719 27.33981 8.284412 27.977036 C 8.234104 28.614262 8.20392 29.563393 8.197212 30.821075 C 8.187151 32.078758 8.183797 33.795914 8.183797 35.969189 C 8.183797 38.145818 8.187151 39.862974 8.197212 41.120657 C 8.20392 42.378339 8.234104 43.330824 8.284412 43.974758 C 8.334719 44.622045 8.405149 45.034565 8.488995 45.212317 C 8.57284 45.39007 8.693578 45.480623 8.8445 45.480623 Z M 8.183797 13.894346 C 8.183797 14.759631 8.150259 15.44381 8.079829 15.946883 C 8.012752 16.446603 7.851769 16.825584 7.596879 17.080475 C 7.341988 17.335365 6.963007 17.496348 6.463287 17.563425 C 5.960214 17.633855 5.286097 17.667393 4.434226 17.667393 C 3.568941 17.667393 2.884761 17.633855 2.385042 17.563425 C 1.881969 17.496348 1.502988 17.335365 1.248097 17.080475 C 0.993207 16.825584 0.832224 16.446603 0.765147 15.946883 C 0.698071 15.44381 0.661179 14.759631 0.661179 13.894346 C 0.661179 13.042475 0.698071 12.368357 0.765147 11.865284 C 0.832224 11.365565 0.993207 10.986584 1.248097 10.731693 C 1.502988 10.476803 1.881969 10.31582 2.385042 10.248743 C 2.884761 10.178313 3.568941 10.144775 4.434226 10.144775 C 5.286097 10.144775 5.960214 10.178313 6.463287 10.248743 C 6.963007 10.31582 7.341988 10.476803 7.596879 10.731693 C 7.851769 10.986584 8.012752 11.365565 8.079829 11.865284 C 8.150259 12.368357 8.183797 13.042475 8.183797 13.894346 Z M 17.004344 13.894346 C 17.004344 14.759631 16.970806 15.44381 16.900375 15.946883 C 16.833299 16.446603 16.672316 16.825584 16.417425 17.080475 C 16.162535 17.335365 15.790261 17.496348 15.297249 17.563425 C 14.804238 17.633855 14.123412 17.667393 13.254773 17.667393 C 12.389487 17.667393 11.708662 17.633855 11.21565 17.563425 C 10.722639 17.496348 10.350365 17.335365 10.095475 17.080475 C 9.840584 16.825584 9.679601 16.446603 9.612524 15.946883 C 9.542094 15.44381 9.508556 14.759631 9.508556 13.894346 C 9.508556 13.042475 9.542094 12.368357 9.612524 11.865284 C 9.679601 11.365565 9.840584 10.986584 10.095475 10.731693 C 10.350365 10.476803 10.722639 10.31582 11.21565 10.248743 C 11.708662 10.178313 12.389487 10.144775 13.254773 10.144775 C 14.123412 10.144775 14.804238 10.178313 15.297249 10.248743 C 15.790261 10.31582 16.162535 10.476803 16.417425 10.731693 C 16.672316 10.986584 16.833299 11.365565 16.900375 11.865284 C 16.970806 12.368357 17.004344 13.042475 17.004344 13.894346 Z M 25.79806 35.99602 C 25.79806 38.578461 25.781291 40.79869 25.744399 42.649999 C 25.710861 44.501307 25.64043 46.05748 25.529754 47.315162 C 25.419078 48.572845 25.251387 49.575637 25.033389 50.323539 C 24.812037 51.071441 24.516901 51.644944 24.151334 52.044049 C 23.785768 52.443153 23.336356 52.701397 22.799745 52.822135 C 22.266488 52.939519 21.615846 52.999887 20.851175 52.999887 L 15.803676 52.999887 L 15.803676 45.480623 L 17.104958 45.480623 C 17.289419 45.480623 17.447048 45.433669 17.574493 45.339762 C 17.701938 45.245855 17.812615 45.044626 17.906521 44.739429 C 18.000428 44.434231 18.070859 43.988173 18.12452 43.401254 C 18.174827 42.814336 18.211719 42.032896 18.23855 41.056934 C 18.262026 40.077619 18.282149 38.86689 18.288857 37.424747 C 18.298918 35.979251 18.302272 34.245326 18.302272 32.222972 C 18.302272 30.200619 18.315688 28.470048 18.339164 27.034613 C 18.365995 25.599178 18.419656 24.391802 18.506855 23.415841 C 18.590701 22.436525 18.718146 21.655085 18.889191 21.068167 C 19.056882 20.484602 19.278234 20.038544 19.549893 19.729992 C 19.821553 19.424795 20.163642 19.226919 20.569455 19.133012 C 20.978621 19.039106 21.471632 18.992152 22.048489 18.992152 C 22.6287 18.992152 23.118358 19.052521 23.527524 19.169905 C 23.93669 19.290642 24.275426 19.548886 24.547085 19.947991 C 24.818745 20.347095 25.040097 20.920599 25.211142 21.6685 C 25.378833 22.416402 25.506278 23.419195 25.593477 24.676877 C 25.677323 25.93456 25.734337 27.490732 25.757814 29.342041 C 25.784645 31.193349 25.79806 33.413578 25.79806 35.99602 Z M 22.048489 70.667811 C 21.183204 70.667811 20.502378 70.634273 20.009367 70.563843 C 19.516355 70.496766 19.144081 70.335783 18.889191 70.080893 C 18.6343 69.826002 18.473317 69.447021 18.402887 68.947302 C 18.33581 68.444229 18.302272 67.770111 18.302272 66.918241 C 18.302272 66.052955 18.33581 65.368776 18.402887 64.865703 C 18.473317 64.365983 18.6343 63.987002 18.889191 63.732111 C 19.144081 63.477221 19.516355 63.316238 20.009367 63.249161 C 20.502378 63.178731 21.183204 63.145193 22.048489 63.145193 C 22.917129 63.145193 23.5946 63.178731 24.087612 63.249161 C 24.580623 63.316238 24.956251 63.477221 25.211142 63.732111 C 25.466032 63.987002 25.627015 64.365983 25.694092 64.865703 C 25.761168 65.368776 25.79806 66.052955 25.79806 66.918241 C 25.79806 67.770111 25.761168 68.444229 25.694092 68.947302 C 25.627015 69.447021 25.466032 69.826002 25.211142 70.080893 C 24.956251 70.335783 24.580623 70.496766 24.087612 70.563843 C 23.5946 70.634273 22.917129 70.667811 22.048489 70.667811 Z M 25.79806 58.074217 C 25.79806 58.939503 25.761168 59.620328 25.694092 60.11334 C 25.627015 60.606351 25.466032 60.978625 25.211142 61.233516 C 24.956251 61.488406 24.580623 61.649389 24.087612 61.719819 C 23.5946 61.786896 22.917129 61.820434 22.048489 61.820434 C 21.183204 61.820434 20.502378 61.786896 20.009367 61.719819 C 19.516355 61.649389 19.144081 61.488406 18.889191 61.233516 C 18.6343 60.978625 18.473317 60.606351 18.402887 60.11334 C 18.33581 59.620328 18.302272 58.939503 18.302272 58.074217 C 18.302272 57.205578 18.33581 56.528106 18.402887 56.035094 C 18.473317 55.542083 18.6343 55.166455 18.889191 54.911565 C 19.144081 54.656674 19.516355 54.495691 20.009367 54.428615 C 20.502378 54.358184 21.183204 54.324646 22.048489 54.324646 C 22.917129 54.324646 23.5946 54.358184 24.087612 54.428615 C 24.580623 54.495691 24.956251 54.656674 25.211142 54.911565 C 25.466032 55.166455 25.627015 55.542083 25.694092 56.035094 C 25.761168 56.528106 25.79806 57.205578 25.79806 58.074217 Z M 35.30614 26.48794 C 35.151864 26.48794 35.031127 26.568432 34.947281 26.729415 C 34.863436 26.890398 34.796359 27.26938 34.742698 27.863006 C 34.692391 28.459986 34.662206 29.342041 34.655499 30.515878 C 34.645437 31.686361 34.642083 33.286133 34.642083 35.308487 C 34.642083 37.33084 34.608545 38.927258 34.538115 40.101095 C 34.471039 41.271579 34.310055 42.160341 34.055165 42.764029 C 33.800275 43.367716 33.421293 43.750052 32.921574 43.911035 C 32.418501 44.072018 31.744383 44.15251 30.895867 44.15251 C 30.315656 44.15251 29.822644 44.112264 29.416832 44.025065 C 29.007666 43.941219 28.662222 43.750052 28.383855 43.451562 C 28.102134 43.156425 27.880782 42.73049 27.719799 42.17711 C 27.558816 41.627084 27.43137 40.882535 27.337463 39.94682 C 27.243556 39.011104 27.186542 37.860744 27.159711 36.492385 C 27.13288 35.124026 27.122819 33.480655 27.122819 31.558916 C 27.122819 29.640531 27.14965 27.993805 27.210018 26.6288 C 27.270387 25.260442 27.394478 24.106728 27.578938 23.174366 C 27.766752 22.23865 28.038412 21.494102 28.397271 20.940721 C 28.752775 20.390695 29.235726 19.96476 29.849475 19.66627 C 30.45987 19.371134 31.214479 19.179966 32.106596 19.092767 C 32.998712 19.008921 34.065226 18.965321 35.30614 18.965321 C 36.543699 18.965321 37.610214 19.02569 38.50233 19.146428 C 39.3978 19.263811 40.142348 19.522056 40.746036 19.92116 C 41.349724 20.323619 41.82932 20.897122 42.188179 21.645024 C 42.543684 22.389572 42.815343 23.392364 43.003157 24.650046 C 43.190971 25.907729 43.315062 27.463901 43.372077 29.31521 C 43.432446 31.169873 43.46263 33.386748 43.46263 35.969189 C 43.46263 38.571753 43.432446 40.79869 43.372077 42.649999 C 43.315062 44.501307 43.190971 46.05748 43.003157 47.315162 C 42.815343 48.572845 42.543684 49.575637 42.188179 50.323539 C 41.82932 51.071441 41.349724 51.644944 40.746036 52.044049 C 40.142348 52.443153 39.3978 52.701397 38.50233 52.822135 C 37.610214 52.939519 36.543699 52.999887 35.30614 52.999887 C 33.434708 52.999887 31.955674 52.966349 30.869036 52.899273 C 29.782398 52.828842 28.960712 52.667859 28.407332 52.412969 C 27.857306 52.158078 27.505154 51.779097 27.350879 51.279378 C 27.196603 50.776305 27.122819 50.092125 27.122819 49.22684 C 27.122819 48.378323 27.163065 47.700852 27.250264 47.201132 C 27.33411 46.698059 27.525277 46.322432 27.823767 46.064187 C 28.118904 45.809297 28.561608 45.648314 29.148526 45.581237 C 29.735445 45.514161 30.5303 45.480623 31.533092 45.480623 C 32.535885 45.480623 33.327386 45.39007 33.914305 45.212317 C 34.501223 45.034565 34.943927 44.622045 35.242417 43.974758 C 35.537553 43.330824 35.728721 42.378339 35.815921 41.120657 C 35.899766 39.862974 35.943366 38.145818 35.943366 35.969189 C 35.943366 33.795914 35.936658 32.078758 35.92995 30.821075 C 35.919889 29.563393 35.896412 28.614262 35.852813 27.977036 C 35.809213 27.33981 35.74549 26.933998 35.661645 26.756245 C 35.577799 26.575139 35.457062 26.48794 35.30614 26.48794 Z M 63.575489 49.22684 C 63.575489 50.092125 63.562074 50.776305 63.535243 51.279378 C 63.511766 51.779097 63.458105 52.158078 63.384321 52.412969 C 63.307183 52.667859 63.186446 52.828842 63.025463 52.899273 C 62.864479 52.966349 62.646481 52.999887 62.374821 52.999887 C 62.103162 52.999887 61.88181 53.080379 61.714119 53.241362 C 61.543074 53.402346 61.418983 53.781327 61.341845 54.378307 C 61.268061 54.971934 61.2144 55.853988 61.190923 57.027825 C 61.164092 58.201662 61.150677 59.798081 61.150677 61.820434 C 61.150677 63.842788 61.076893 65.439206 60.922617 66.613043 C 60.768342 67.78688 60.416191 68.668935 59.866164 69.265915 C 59.312784 69.859541 58.491098 70.238522 57.40446 70.399506 C 56.317822 70.560489 54.838788 70.640981 52.967356 70.640981 C 51.099278 70.640981 49.620244 70.563843 48.533606 70.412921 C 47.446968 70.258645 46.625283 69.906494 46.071902 69.353114 C 45.521876 68.803087 45.169725 67.984755 45.015449 66.908179 C 44.861173 65.828249 44.784035 64.352568 44.784035 62.48449 C 44.784035 60.613059 44.820927 59.140732 44.888004 58.060802 C 44.95508 56.980872 45.116064 56.165893 45.370954 55.612513 C 45.625844 55.059133 46.004826 54.706982 46.507899 54.55606 C 47.007618 54.401784 47.691797 54.324646 48.557083 54.324646 C 49.408953 54.324646 50.083071 54.368246 50.586144 54.452091 C 51.085863 54.539291 51.464845 54.730458 51.719735 55.025595 C 51.974625 55.324085 52.135609 55.766789 52.202685 56.353707 C 52.273115 56.937272 52.306654 57.732127 52.306654 58.73492 C 52.306654 59.737712 52.310007 60.532567 52.320069 61.119486 C 52.326777 61.706404 52.356961 62.149108 52.407268 62.444245 C 52.457576 62.742735 52.528006 62.933902 52.611851 63.017748 C 52.695697 63.104947 52.816434 63.145193 52.967356 63.145193 C 53.121632 63.145193 53.242369 63.098239 53.326215 63.007686 C 53.41006 62.913779 53.480491 62.695781 53.530798 62.357045 C 53.581105 62.014956 53.61129 61.505175 53.617997 60.827703 C 53.628059 60.146878 53.631413 59.227931 53.631413 58.074217 C 53.631413 56.917149 53.587813 56.00491 53.503967 55.334146 C 53.420122 54.660028 53.228954 54.150248 52.930464 53.80145 C 52.631974 53.456007 52.192624 53.234655 51.605705 53.140748 C 51.018787 53.046841 50.223931 52.999887 49.221139 52.999887 C 48.540314 52.999887 47.963457 52.939519 47.487214 52.822135 C 47.010972 52.701397 46.608513 52.443153 46.276485 52.044049 C 45.944457 51.644944 45.682859 51.071441 45.488338 50.323539 C 45.290462 49.575637 45.142894 48.572845 45.042279 47.315162 C 44.938311 46.05748 44.871235 44.501307 44.837696 42.649999 C 44.804158 40.79869 44.784035 38.578461 44.784035 35.99602 C 44.784035 33.396809 44.81422 31.173226 44.874588 29.328625 C 44.934957 27.484024 45.059049 25.93456 45.243509 24.676877 C 45.431323 23.419195 45.702982 22.416402 46.061841 21.6685 C 46.417346 20.920599 46.900296 20.347095 47.514045 19.947991 C 48.12444 19.548886 48.875696 19.290642 49.771166 19.169905 C 50.663282 19.052521 51.729797 18.992152 52.967356 18.992152 C 54.225039 18.992152 55.298261 19.039106 56.180316 19.133012 C 57.065724 19.226919 57.813626 19.424795 58.424021 19.729992 C 59.037771 20.038544 59.520721 20.484602 59.876226 21.068167 C 60.235084 21.655085 60.506744 22.436525 60.694558 23.415841 C 60.879018 24.391802 61.003109 25.599178 61.063478 27.034613 C 61.123847 28.470048 61.150677 30.200619 61.150677 32.222972 C 61.150677 34.245326 61.157385 35.979251 61.164092 37.424747 C 61.174154 38.86689 61.190923 40.077619 61.2144 41.056934 C 61.24123 42.032896 61.28483 42.814336 61.341845 43.401254 C 61.402214 43.988173 61.475998 44.434231 61.559843 44.739429 C 61.643689 45.044626 61.754365 45.245855 61.891871 45.339762 C 62.026024 45.433669 62.190361 45.480623 62.374821 45.480623 C 62.646481 45.480623 62.864479 45.514161 63.025463 45.581237 C 63.186446 45.648314 63.307183 45.809297 63.384321 46.064187 C 63.458105 46.322432 63.511766 46.698059 63.535243 47.201132 C 63.562074 47.700852 63.575489 48.378323 63.575489 49.22684 Z M 52.967356 45.480623 C 53.121632 45.480623 53.242369 45.39007 53.326215 45.212317 C 53.41006 45.034565 53.480491 44.625399 53.530798 43.988173 C 53.581105 43.350947 53.61129 42.398462 53.617997 41.134072 C 53.628059 39.866328 53.631413 38.15588 53.631413 35.99602 C 53.631413 33.81939 53.628059 32.105588 53.617997 30.847906 C 53.61129 29.590223 53.581105 28.641092 53.530798 28.003867 C 53.480491 27.366641 53.41006 26.957475 53.326215 26.779722 C 53.242369 26.60197 53.121632 26.511417 52.967356 26.511417 C 52.816434 26.511417 52.695697 26.60197 52.611851 26.779722 C 52.528006 26.957475 52.457576 27.366641 52.407268 28.003867 C 52.356961 28.641092 52.326777 29.590223 52.320069 30.847906 C 52.310007 32.105588 52.306654 33.81939 52.306654 35.99602 C 52.306654 38.15588 52.310007 39.866328 52.320069 41.134072 C 52.326777 42.398462 52.356961 43.350947 52.407268 43.988173 C 52.457576 44.625399 52.528006 45.034565 52.611851 45.212317 C 52.695697 45.39007 52.816434 45.480623 52.967356 45.480623 Z M 59.953363 52.999887 L 59.953363 45.480623 L 61.251292 45.480623 C 61.439106 45.480623 61.596735 45.433669 61.72418 45.339762 C 61.851626 45.245855 61.962302 45.044626 62.056209 44.739429 C 62.150116 44.434231 62.220546 43.988173 62.270853 43.401254 C 62.32116 42.814336 62.361406 42.032896 62.384883 41.056934 C 62.411713 40.077619 62.428483 38.86689 62.438544 37.424747 C 62.445252 35.979251 62.448605 34.245326 62.448605 32.222972 C 62.448605 30.200619 62.47879 28.470048 62.539159 27.034613 C 62.599527 25.599178 62.723619 24.391802 62.908079 23.415841 C 63.095893 22.436525 63.367552 21.655085 63.726411 21.068167 C 64.081916 20.484602 64.564866 20.038544 65.178615 19.729992 C 65.78901 19.424795 66.540266 19.226919 67.432382 19.133012 C 68.327852 19.039106 69.394367 18.992152 70.631926 18.992152 C 71.87284 18.992152 72.939355 19.035752 73.831471 19.119597 C 74.723587 19.203443 75.471489 19.39461 76.075176 19.6931 C 76.678864 19.99159 77.15846 20.414172 77.517319 20.967552 C 77.872824 21.520932 78.144483 22.262127 78.332297 23.197842 C 78.520111 24.133558 78.644202 25.283918 78.701217 26.652277 C 78.761586 28.020636 78.791771 29.664007 78.791771 31.585746 C 78.791771 33.507485 78.778355 35.150857 78.751525 36.519216 C 78.728048 37.887574 78.671033 39.037934 78.587188 39.97365 C 78.503342 40.909366 78.375897 41.65056 78.204852 42.203941 C 78.033807 42.757321 77.809101 43.179902 77.530734 43.478392 C 77.249013 43.776882 76.90357 43.96805 76.497758 44.051895 C 76.088592 44.135741 75.605642 44.179341 75.0422 44.179341 C 74.176914 44.179341 73.492735 44.098849 72.993016 43.937866 C 72.489943 43.776882 72.110961 43.394547 71.856071 42.790859 C 71.60118 42.187171 71.440197 41.298409 71.373121 40.124572 C 71.306044 38.954089 71.269152 37.354317 71.269152 35.331963 C 71.269152 33.30961 71.265798 31.713191 71.259091 30.539354 C 71.249029 29.368871 71.218845 28.483463 71.168538 27.889837 C 71.11823 27.292857 71.051154 26.917229 70.963955 26.756245 C 70.880109 26.591908 70.759372 26.511417 70.60845 26.511417 C 70.454174 26.511417 70.33679 26.60197 70.249591 26.779722 C 70.165745 26.957475 70.098669 27.366641 70.048362 28.003867 C 69.994701 28.641092 69.96787 29.590223 69.957809 30.847906 C 69.947747 32.105588 69.944393 33.81939 69.944393 35.99602 C 69.944393 38.15588 69.994701 39.866328 70.098669 41.134072 C 70.199284 42.398462 70.440759 43.350947 70.823094 43.988173 C 71.20543 44.625399 71.772225 45.034565 72.520127 45.212317 C 73.268029 45.39007 74.28759 45.480623 75.578811 45.480623 L 81.213229 45.480623 L 81.213229 52.999887 Z M 80.089699 32.222972 C 80.089699 30.200619 80.103114 28.466694 80.126591 27.021197 C 80.153422 25.579055 80.207083 24.368326 80.294282 23.38901 C 80.378127 22.413049 80.505573 21.631608 80.676617 21.04469 C 80.844308 20.457771 81.065661 20.011713 81.33732 19.706516 C 81.608979 19.401318 81.951069 19.200089 82.356881 19.106182 C 82.766047 19.012275 83.259059 18.965321 83.835916 18.965321 C 84.412773 18.965321 84.905785 19.012275 85.314951 19.106182 C 85.724117 19.200089 86.062852 19.401318 86.334512 19.706516 C 86.606171 20.011713 86.827523 20.457771 86.998568 21.04469 C 87.166259 21.631608 87.293704 22.413049 87.380904 23.38901 C 87.464749 24.368326 87.521764 25.579055 87.545241 27.021197 C 87.572071 28.466694 87.585487 30.200619 87.585487 32.222972 C 87.585487 34.245326 87.588841 35.979251 87.595548 37.424747 C 87.60561 38.86689 87.612317 40.077619 87.622379 41.056934 C 87.63244 42.032896 87.652563 42.814336 87.686101 43.401254 C 87.71964 43.988173 87.759885 44.434231 87.800131 44.739429 C 87.843731 45.044626 87.9041 45.245855 87.977884 45.339762 C 88.055022 45.433669 88.145575 45.480623 88.246189 45.480623 C 88.350158 45.480623 88.437357 45.433669 88.514495 45.339762 C 88.591633 45.245855 88.652002 45.044626 88.692247 44.739429 C 88.735847 44.434231 88.772739 43.988173 88.806277 43.401254 C 88.843169 42.814336 88.863292 42.032896 88.87 41.056934 C 88.880061 40.077619 88.890123 38.86689 88.89683 37.424747 C 88.906892 35.979251 88.910246 34.245326 88.910246 32.222972 C 88.910246 30.200619 88.923661 28.466694 88.947138 27.021197 C 88.973968 25.579055 89.034337 24.368326 89.12489 23.38901 C 89.218797 22.413049 89.346242 21.631608 89.507226 21.04469 C 89.671563 20.457771 89.889561 20.011713 90.171282 19.706516 C 90.453003 19.401318 90.795093 19.200089 91.204259 19.106182 C 91.613425 19.012275 92.106436 18.965321 92.683293 18.965321 C 93.26015 18.965321 93.749808 19.012275 94.148913 19.106182 C 94.548017 19.200089 94.886753 19.401318 95.168474 19.706516 C 95.450195 20.011713 95.674901 20.457771 95.842592 21.04469 C 96.013637 21.631608 96.141082 22.413049 96.224927 23.38901 C 96.312127 24.368326 96.365788 25.579055 96.392618 27.021197 C 96.416095 28.466694 96.42951 30.200619 96.42951 32.222972 C 96.42951 34.245326 96.432864 35.979251 96.442925 37.424747 C 96.452987 38.86689 96.459695 40.077619 96.469756 41.056934 C 96.476464 42.032896 96.496587 42.814336 96.533479 43.401254 C 96.567017 43.988173 96.603909 44.434231 96.647509 44.739429 C 96.687754 45.044626 96.748123 45.245855 96.825261 45.339762 C 96.902399 45.433669 96.989598 45.480623 97.093567 45.480623 C 97.194181 45.480623 97.28138 45.433669 97.348457 45.339762 C 97.415533 45.245855 97.472548 45.044626 97.512794 44.739429 C 97.556394 44.434231 97.593286 43.988173 97.626824 43.401254 C 97.663716 42.814336 97.683839 42.032896 97.690547 41.056934 C 97.700608 40.077619 97.710669 38.86689 97.717377 37.424747 C 97.727439 35.979251 97.730792 34.245326 97.730792 32.222972 C 97.730792 30.200619 97.744208 28.466694 97.767684 27.021197 C 97.794515 25.579055 97.854884 24.368326 97.945437 23.38901 C 98.039344 22.413049 98.166789 21.631608 98.327772 21.04469 C 98.49211 20.457771 98.713462 20.011713 98.991829 19.706516 C 99.27355 19.401318 99.615639 19.200089 100.024805 19.106182 C 100.433971 19.012275 100.926983 18.965321 101.50384 18.965321 C 102.080697 18.965321 102.570355 19.012275 102.969459 19.106182 C 103.368564 19.200089 103.7073 19.401318 103.989021 19.706516 C 104.270741 20.011713 104.495447 20.457771 104.663138 21.04469 C 104.834183 21.631608 104.961628 22.413049 105.045474 23.38901 C 105.132673 24.368326 105.186334 25.579055 105.213165 27.021197 C 105.236642 28.466694 105.250057 30.200619 105.250057 32.222972 C 105.250057 34.245326 105.253411 35.979251 105.263472 37.424747 C 105.273534 38.86689 105.290303 40.077619 105.31378 41.056934 C 105.34061 42.032896 105.38421 42.814336 105.441225 43.401254 C 105.501593 43.988173 105.575377 44.434231 105.659223 44.739429 C 105.743068 45.044626 105.853745 45.245855 105.991251 45.339762 C 106.125404 45.433669 106.286387 45.480623 106.474201 45.480623 L 107.825791 45.480623 L 107.825791 52.999887 L 77.463658 52.999887 L 77.463658 45.480623 L 78.892385 45.480623 C 79.076845 45.480623 79.234475 45.433669 79.36192 45.339762 C 79.489365 45.245855 79.600041 45.044626 79.693948 44.739429 C 79.787855 44.434231 79.858285 43.988173 79.911946 43.401254 C 79.962254 42.814336 79.999146 42.032896 80.025976 41.056934 C 80.049453 40.077619 80.066222 38.86689 80.076284 37.424747 C 80.086345 35.979251 80.089699 34.245326 80.089699 32.222972 Z M 114.06725 27.148642 C 114.06725 31.025658 114.050481 34.352648 114.016943 37.129611 C 113.983404 39.909928 113.90962 42.254248 113.798944 44.165925 C 113.688268 46.077603 113.533992 47.606945 113.329409 48.753951 C 113.124826 49.900958 112.849813 50.78972 112.501016 51.420238 C 112.152219 52.047402 111.719576 52.463276 111.199734 52.667859 C 110.683245 52.872442 110.066143 52.983118 109.351779 52.999887 L 104.150004 52.999887 L 104.150004 45.480623 L 105.350672 45.480623 C 105.535132 45.480623 105.692761 45.403485 105.820206 45.249209 C 105.947651 45.098287 106.058328 44.766259 106.152235 44.256478 C 106.246141 43.746698 106.316572 43.00215 106.370233 42.026188 C 106.42054 41.046873 106.457432 39.742237 106.484263 38.11228 C 106.507739 36.47897 106.527862 34.463324 106.53457 32.058635 C 106.544631 29.653946 106.547985 26.766307 106.547985 23.402425 C 106.547985 20.038544 106.561401 17.150905 106.584877 14.746216 C 106.611708 12.341527 106.672077 10.325881 106.76263 8.692571 C 106.856537 7.062614 106.983982 5.757978 107.144965 4.778663 C 107.309302 3.802701 107.530655 3.058153 107.809022 2.548372 C 108.090743 2.038592 108.432832 1.706564 108.841998 1.555642 C 109.251164 1.401366 109.744176 1.324228 110.321033 1.324228 C 110.89789 1.324228 111.387548 1.414781 111.786652 1.592534 C 112.185757 1.770286 112.524493 2.162683 112.806213 2.766371 C 113.087934 3.370058 113.31264 4.238698 113.480331 5.378996 C 113.651376 6.515941 113.778821 8.04193 113.862667 9.953607 C 113.949866 11.865284 114.003527 14.226374 114.030358 17.030167 C 114.053835 19.833961 114.06725 23.207904 114.06725 27.148642 Z M 119.14158 1.351059 C 119.718437 1.351059 120.211448 1.441612 120.61726 1.619364 C 121.026426 1.797117 121.365162 2.189514 121.636822 2.789847 C 121.911835 3.393535 122.129833 4.265528 122.300878 5.405827 C 122.471923 6.542772 122.599368 8.06876 122.683214 9.980438 C 122.767059 11.892115 122.824074 14.249851 122.847551 17.053644 C 122.874381 19.857438 122.887797 23.231381 122.887797 27.175473 C 122.887797 31.119565 122.874381 34.493508 122.847551 37.297302 C 122.824074 40.101095 122.767059 42.458831 122.683214 44.370508 C 122.599368 46.282186 122.471923 47.808174 122.300878 48.945119 C 122.129833 50.085418 121.911835 50.957411 121.636822 51.561099 C 121.365162 52.161432 121.026426 52.553829 120.61726 52.731582 C 120.211448 52.909334 119.718437 52.999887 119.14158 52.999887 C 118.561369 52.999887 118.068357 52.909334 117.662545 52.731582 C 117.253379 52.553829 116.914643 52.161432 116.642984 51.561099 C 116.371324 50.957411 116.149972 50.085418 115.978927 48.945119 C 115.807882 47.808174 115.680437 46.282186 115.596592 44.370508 C 115.512746 42.458831 115.455731 40.101095 115.432255 37.297302 C 115.405424 34.493508 115.392009 31.119565 115.392009 27.175473 C 115.392009 23.231381 115.405424 19.857438 115.432255 17.053644 C 115.455731 14.249851 115.512746 11.892115 115.596592 9.980438 C 115.680437 8.06876 115.807882 6.542772 115.978927 5.405827 C 116.149972 4.265528 116.371324 3.393535 116.642984 2.789847 C 116.914643 2.189514 117.253379 1.797117 117.662545 1.619364 C 118.068357 1.441612 118.561369 1.351059 119.14158 1.351059 Z M 119.14158 1.351059 " stroke="#000000" stroke-width="3.524371" stroke-opacity="1" stroke-miterlimit="4"/><g fill="#ffffff" fill-opacity="1"><g transform="translate(170.374445, 318.187631)"><g><path d="M 11.703125 0 C 10.035156 0 8.609375 -0.0664062 7.421875 -0.203125 C 6.234375 -0.347656 5.234375 -0.648438 4.421875 -1.109375 C 3.609375 -1.578125 2.957031 -2.242188 2.46875 -3.109375 C 1.988281 -3.984375 1.625 -5.148438 1.375 -6.609375 C 1.132812 -8.078125 0.972656 -9.890625 0.890625 -12.046875 C 0.804688 -14.210938 0.765625 -16.800781 0.765625 -19.8125 C 0.765625 -22.832031 0.800781 -25.414062 0.875 -27.5625 C 0.945312 -29.71875 1.09375 -31.523438 1.3125 -32.984375 C 1.53125 -34.453125 1.84375 -35.617188 2.25 -36.484375 C 2.664062 -37.359375 3.226562 -38.03125 3.9375 -38.5 C 4.65625 -38.96875 5.535156 -39.269531 6.578125 -39.40625 C 7.617188 -39.539062 8.859375 -39.609375 10.296875 -39.609375 C 11.742188 -39.609375 12.988281 -39.550781 14.03125 -39.4375 C 15.070312 -39.332031 15.941406 -39.101562 16.640625 -38.75 C 17.347656 -38.394531 17.90625 -37.875 18.3125 -37.1875 C 18.726562 -36.507812 19.046875 -35.597656 19.265625 -34.453125 C 19.484375 -33.316406 19.628906 -31.910156 19.703125 -30.234375 C 19.773438 -28.566406 19.8125 -26.554688 19.8125 -24.203125 C 19.8125 -21.847656 19.8125 -19.828125 19.8125 -18.140625 C 19.820312 -16.460938 19.84375 -15.050781 19.875 -13.90625 C 19.90625 -12.769531 19.953125 -11.859375 20.015625 -11.171875 C 20.085938 -10.492188 20.171875 -9.976562 20.265625 -9.625 C 20.367188 -9.269531 20.5 -9.035156 20.65625 -8.921875 C 20.820312 -8.816406 21.015625 -8.765625 21.234375 -8.765625 L 22.6875 -8.765625 L 22.6875 0 Z M 10.296875 -8.765625 C 10.484375 -8.765625 10.625 -8.867188 10.71875 -9.078125 C 10.820312 -9.285156 10.898438 -9.765625 10.953125 -10.515625 C 11.015625 -11.265625 11.050781 -12.367188 11.0625 -13.828125 C 11.070312 -15.296875 11.078125 -17.296875 11.078125 -19.828125 C 11.078125 -22.367188 11.070312 -24.367188 11.0625 -25.828125 C 11.050781 -27.296875 11.015625 -28.398438 10.953125 -29.140625 C 10.898438 -29.878906 10.820312 -30.351562 10.71875 -30.5625 C 10.625 -30.769531 10.484375 -30.875 10.296875 -30.875 C 10.117188 -30.875 9.976562 -30.769531 9.875 -30.5625 C 9.78125 -30.351562 9.703125 -29.878906 9.640625 -29.140625 C 9.585938 -28.398438 9.554688 -27.296875 9.546875 -25.828125 C 9.535156 -24.367188 9.53125 -22.367188 9.53125 -19.828125 C 9.53125 -17.296875 9.535156 -15.296875 9.546875 -13.828125 C 9.554688 -12.367188 9.585938 -11.265625 9.640625 -10.515625 C 9.703125 -9.765625 9.78125 -9.285156 9.875 -9.078125 C 9.976562 -8.867188 10.117188 -8.765625 10.296875 -8.765625 Z M 9.53125 -45.546875 C 9.53125 -44.535156 9.488281 -43.738281 9.40625 -43.15625 C 9.332031 -42.570312 9.144531 -42.128906 8.84375 -41.828125 C 8.550781 -41.535156 8.113281 -41.347656 7.53125 -41.265625 C 6.945312 -41.191406 6.160156 -41.15625 5.171875 -41.15625 C 4.160156 -41.15625 3.363281 -41.191406 2.78125 -41.265625 C 2.195312 -41.347656 1.753906 -41.535156 1.453125 -41.828125 C 1.160156 -42.128906 0.972656 -42.570312 0.890625 -43.15625 C 0.804688 -43.738281 0.765625 -44.535156 0.765625 -45.546875 C 0.765625 -46.535156 0.804688 -47.320312 0.890625 -47.90625 C 0.972656 -48.488281 1.160156 -48.925781 1.453125 -49.21875 C 1.753906 -49.519531 2.195312 -49.710938 2.78125 -49.796875 C 3.363281 -49.878906 4.160156 -49.921875 5.171875 -49.921875 C 6.160156 -49.921875 6.945312 -49.878906 7.53125 -49.796875 C 8.113281 -49.710938 8.550781 -49.519531 8.84375 -49.21875 C 9.144531 -48.925781 9.332031 -48.488281 9.40625 -47.90625 C 9.488281 -47.320312 9.53125 -46.535156 9.53125 -45.546875 Z M 19.8125 -45.546875 C 19.8125 -44.535156 19.769531 -43.738281 19.6875 -43.15625 C 19.601562 -42.570312 19.410156 -42.128906 19.109375 -41.828125 C 18.816406 -41.535156 18.382812 -41.347656 17.8125 -41.265625 C 17.238281 -41.191406 16.445312 -41.15625 15.4375 -41.15625 C 14.425781 -41.15625 13.632812 -41.191406 13.0625 -41.265625 C 12.488281 -41.347656 12.050781 -41.535156 11.75 -41.828125 C 11.457031 -42.128906 11.269531 -42.570312 11.1875 -43.15625 C 11.113281 -43.738281 11.078125 -44.535156 11.078125 -45.546875 C 11.078125 -46.535156 11.113281 -47.320312 11.1875 -47.90625 C 11.269531 -48.488281 11.457031 -48.925781 11.75 -49.21875 C 12.050781 -49.519531 12.488281 -49.710938 13.0625 -49.796875 C 13.632812 -49.878906 14.425781 -49.921875 15.4375 -49.921875 C 16.445312 -49.921875 17.238281 -49.878906 17.8125 -49.796875 C 18.382812 -49.710938 18.816406 -49.519531 19.109375 -49.21875 C 19.410156 -48.925781 19.601562 -48.488281 19.6875 -47.90625 C 19.769531 -47.320312 19.8125 -46.535156 19.8125 -45.546875 Z M 19.8125 -45.546875 "/></g></g></g><g fill="#ffffff" fill-opacity="1"><g transform="translate(190.948517, 318.187631)"><g><path d="M 9.46875 -19.8125 C 9.46875 -16.800781 9.445312 -14.210938 9.40625 -12.046875 C 9.375 -9.890625 9.289062 -8.078125 9.15625 -6.609375 C 9.03125 -5.148438 8.835938 -3.984375 8.578125 -3.109375 C 8.328125 -2.242188 7.988281 -1.578125 7.5625 -1.109375 C 7.132812 -0.648438 6.609375 -0.347656 5.984375 -0.203125 C 5.359375 -0.0664062 4.601562 0 3.71875 0 L -2.171875 0 L -2.171875 -8.765625 L -0.65625 -8.765625 C -0.4375 -8.765625 -0.25 -8.816406 -0.09375 -8.921875 C 0.0507812 -9.035156 0.175781 -9.269531 0.28125 -9.625 C 0.394531 -9.976562 0.476562 -10.492188 0.53125 -11.171875 C 0.59375 -11.859375 0.640625 -12.769531 0.671875 -13.90625 C 0.703125 -15.050781 0.722656 -16.460938 0.734375 -18.140625 C 0.742188 -19.828125 0.75 -21.847656 0.75 -24.203125 C 0.75 -26.554688 0.757812 -28.566406 0.78125 -30.234375 C 0.8125 -31.910156 0.875 -33.316406 0.96875 -34.453125 C 1.070312 -35.597656 1.222656 -36.507812 1.421875 -37.1875 C 1.617188 -37.875 1.875 -38.394531 2.1875 -38.75 C 2.507812 -39.101562 2.90625 -39.332031 3.375 -39.4375 C 3.851562 -39.550781 4.429688 -39.609375 5.109375 -39.609375 C 5.773438 -39.609375 6.347656 -39.539062 6.828125 -39.40625 C 7.304688 -39.269531 7.703125 -38.96875 8.015625 -38.5 C 8.335938 -38.03125 8.597656 -37.359375 8.796875 -36.484375 C 8.992188 -35.617188 9.140625 -34.453125 9.234375 -32.984375 C 9.335938 -31.523438 9.398438 -29.710938 9.421875 -27.546875 C 9.453125 -25.390625 9.46875 -22.8125 9.46875 -19.8125 Z M 5.109375 20.578125 C 4.097656 20.578125 3.304688 20.535156 2.734375 20.453125 C 2.160156 20.378906 1.722656 20.191406 1.421875 19.890625 C 1.128906 19.597656 0.941406 19.160156 0.859375 18.578125 C 0.785156 17.992188 0.75 17.207031 0.75 16.21875 C 0.75 15.207031 0.785156 14.410156 0.859375 13.828125 C 0.941406 13.242188 1.128906 12.800781 1.421875 12.5 C 1.722656 12.207031 2.160156 12.019531 2.734375 11.9375 C 3.304688 11.851562 4.097656 11.8125 5.109375 11.8125 C 6.117188 11.8125 6.910156 11.851562 7.484375 11.9375 C 8.054688 12.019531 8.488281 12.207031 8.78125 12.5 C 9.082031 12.800781 9.269531 13.242188 9.34375 13.828125 C 9.425781 14.410156 9.46875 15.207031 9.46875 16.21875 C 9.46875 17.207031 9.425781 17.992188 9.34375 18.578125 C 9.269531 19.160156 9.082031 19.597656 8.78125 19.890625 C 8.488281 20.191406 8.054688 20.378906 7.484375 20.453125 C 6.910156 20.535156 6.117188 20.578125 5.109375 20.578125 Z M 9.46875 5.90625 C 9.46875 6.914062 9.425781 7.707031 9.34375 8.28125 C 9.269531 8.851562 9.082031 9.285156 8.78125 9.578125 C 8.488281 9.878906 8.054688 10.070312 7.484375 10.15625 C 6.910156 10.238281 6.117188 10.28125 5.109375 10.28125 C 4.097656 10.28125 3.304688 10.238281 2.734375 10.15625 C 2.160156 10.070312 1.722656 9.878906 1.421875 9.578125 C 1.128906 9.285156 0.941406 8.851562 0.859375 8.28125 C 0.785156 7.707031 0.75 6.914062 0.75 5.90625 C 0.75 4.894531 0.785156 4.101562 0.859375 3.53125 C 0.941406 2.957031 1.128906 2.519531 1.421875 2.21875 C 1.722656 1.925781 2.160156 1.738281 2.734375 1.65625 C 3.304688 1.582031 4.097656 1.546875 5.109375 1.546875 C 6.117188 1.546875 6.910156 1.582031 7.484375 1.65625 C 8.054688 1.738281 8.488281 1.925781 8.78125 2.21875 C 9.082031 2.519531 9.269531 2.957031 9.34375 3.53125 C 9.425781 4.101562 9.46875 4.894531 9.46875 5.90625 Z M 9.46875 5.90625 "/></g></g></g><g fill="#ffffff" fill-opacity="1"><g transform="translate(201.191025, 318.187631)"><g><path d="M 10.296875 -30.875 C 10.117188 -30.875 9.976562 -30.78125 9.875 -30.59375 C 9.78125 -30.40625 9.703125 -29.960938 9.640625 -29.265625 C 9.585938 -28.578125 9.554688 -27.550781 9.546875 -26.1875 C 9.535156 -24.820312 9.53125 -22.960938 9.53125 -20.609375 C 9.53125 -18.253906 9.488281 -16.390625 9.40625 -15.015625 C 9.332031 -13.648438 9.144531 -12.617188 8.84375 -11.921875 C 8.550781 -11.222656 8.113281 -10.773438 7.53125 -10.578125 C 6.945312 -10.390625 6.160156 -10.296875 5.171875 -10.296875 C 4.492188 -10.296875 3.914062 -10.34375 3.4375 -10.4375 C 2.96875 -10.539062 2.566406 -10.765625 2.234375 -11.109375 C 1.910156 -11.460938 1.65625 -11.957031 1.46875 -12.59375 C 1.28125 -13.238281 1.128906 -14.109375 1.015625 -15.203125 C 0.910156 -16.296875 0.84375 -17.632812 0.8125 -19.21875 C 0.78125 -20.8125 0.765625 -22.726562 0.765625 -24.96875 C 0.765625 -27.207031 0.800781 -29.125 0.875 -30.71875 C 0.945312 -32.3125 1.09375 -33.648438 1.3125 -34.734375 C 1.53125 -35.828125 1.84375 -36.695312 2.25 -37.34375 C 2.664062 -37.988281 3.226562 -38.484375 3.9375 -38.828125 C 4.65625 -39.171875 5.535156 -39.390625 6.578125 -39.484375 C 7.617188 -39.585938 8.859375 -39.640625 10.296875 -39.640625 C 11.742188 -39.640625 12.988281 -39.566406 14.03125 -39.421875 C 15.070312 -39.285156 15.941406 -38.984375 16.640625 -38.515625 C 17.347656 -38.054688 17.90625 -37.390625 18.3125 -36.515625 C 18.726562 -35.648438 19.046875 -34.484375 19.265625 -33.015625 C 19.484375 -31.554688 19.628906 -29.742188 19.703125 -27.578125 C 19.773438 -25.421875 19.8125 -22.835938 19.8125 -19.828125 C 19.8125 -16.804688 19.773438 -14.210938 19.703125 -12.046875 C 19.628906 -9.890625 19.484375 -8.078125 19.265625 -6.609375 C 19.046875 -5.148438 18.726562 -3.984375 18.3125 -3.109375 C 17.90625 -2.242188 17.347656 -1.578125 16.640625 -1.109375 C 15.941406 -0.648438 15.070312 -0.347656 14.03125 -0.203125 C 12.988281 -0.0664062 11.742188 0 10.296875 0 C 8.117188 0 6.394531 -0.0351562 5.125 -0.109375 C 3.863281 -0.191406 2.910156 -0.378906 2.265625 -0.671875 C 1.628906 -0.972656 1.21875 -1.414062 1.03125 -2 C 0.851562 -2.582031 0.765625 -3.378906 0.765625 -4.390625 C 0.765625 -5.378906 0.8125 -6.164062 0.90625 -6.75 C 1.007812 -7.332031 1.234375 -7.769531 1.578125 -8.0625 C 1.929688 -8.363281 2.445312 -8.554688 3.125 -8.640625 C 3.8125 -8.722656 4.738281 -8.765625 5.90625 -8.765625 C 7.070312 -8.765625 7.992188 -8.867188 8.671875 -9.078125 C 9.359375 -9.285156 9.875 -9.765625 10.21875 -10.515625 C 10.570312 -11.265625 10.796875 -12.367188 10.890625 -13.828125 C 10.992188 -15.296875 11.046875 -17.296875 11.046875 -19.828125 C 11.046875 -22.367188 11.039062 -24.367188 11.03125 -25.828125 C 11.019531 -27.296875 10.988281 -28.398438 10.9375 -29.140625 C 10.894531 -29.878906 10.820312 -30.351562 10.71875 -30.5625 C 10.625 -30.769531 10.484375 -30.875 10.296875 -30.875 Z M 10.296875 -30.875 "/></g></g></g><g fill="#ffffff" fill-opacity="1"><g transform="translate(221.765097, 318.187631)"><g><path d="M 22.65625 -4.390625 C 22.65625 -3.378906 22.640625 -2.582031 22.609375 -2 C 22.578125 -1.414062 22.515625 -0.972656 22.421875 -0.671875 C 22.335938 -0.378906 22.203125 -0.191406 22.015625 -0.109375 C 21.828125 -0.0351562 21.578125 0 21.265625 0 C 20.941406 0 20.679688 0.09375 20.484375 0.28125 C 20.285156 0.46875 20.140625 0.90625 20.046875 1.59375 C 19.960938 2.289062 19.90625 3.320312 19.875 4.6875 C 19.84375 6.050781 19.828125 7.914062 19.828125 10.28125 C 19.828125 12.632812 19.738281 14.492188 19.5625 15.859375 C 19.382812 17.222656 18.972656 18.25 18.328125 18.9375 C 17.691406 19.632812 16.738281 20.078125 15.46875 20.265625 C 14.195312 20.453125 12.472656 20.546875 10.296875 20.546875 C 8.117188 20.546875 6.394531 20.457031 5.125 20.28125 C 3.863281 20.101562 2.910156 19.691406 2.265625 19.046875 C 1.628906 18.398438 1.21875 17.445312 1.03125 16.1875 C 0.851562 14.9375 0.765625 13.222656 0.765625 11.046875 C 0.765625 8.867188 0.804688 7.148438 0.890625 5.890625 C 0.972656 4.640625 1.160156 3.691406 1.453125 3.046875 C 1.753906 2.398438 2.195312 1.988281 2.78125 1.8125 C 3.363281 1.632812 4.160156 1.546875 5.171875 1.546875 C 6.160156 1.546875 6.945312 1.59375 7.53125 1.6875 C 8.113281 1.789062 8.550781 2.015625 8.84375 2.359375 C 9.144531 2.703125 9.332031 3.210938 9.40625 3.890625 C 9.488281 4.578125 9.53125 5.507812 9.53125 6.6875 C 9.53125 7.851562 9.535156 8.773438 9.546875 9.453125 C 9.554688 10.140625 9.585938 10.65625 9.640625 11 C 9.703125 11.34375 9.78125 11.5625 9.875 11.65625 C 9.976562 11.757812 10.117188 11.8125 10.296875 11.8125 C 10.484375 11.8125 10.625 11.753906 10.71875 11.640625 C 10.820312 11.535156 10.898438 11.285156 10.953125 10.890625 C 11.015625 10.492188 11.050781 9.898438 11.0625 9.109375 C 11.070312 8.316406 11.078125 7.25 11.078125 5.90625 C 11.078125 4.5625 11.023438 3.5 10.921875 2.71875 C 10.828125 1.9375 10.601562 1.34375 10.25 0.9375 C 9.90625 0.53125 9.390625 0.269531 8.703125 0.15625 C 8.023438 0.0507812 7.101562 0 5.9375 0 C 5.144531 0 4.472656 -0.0664062 3.921875 -0.203125 C 3.367188 -0.347656 2.898438 -0.648438 2.515625 -1.109375 C 2.128906 -1.578125 1.820312 -2.242188 1.59375 -3.109375 C 1.363281 -3.984375 1.1875 -5.148438 1.0625 -6.609375 C 0.945312 -8.078125 0.867188 -9.890625 0.828125 -12.046875 C 0.785156 -14.210938 0.765625 -16.800781 0.765625 -19.8125 C 0.765625 -22.832031 0.800781 -25.414062 0.875 -27.5625 C 0.945312 -29.71875 1.09375 -31.523438 1.3125 -32.984375 C 1.53125 -34.453125 1.84375 -35.617188 2.25 -36.484375 C 2.664062 -37.359375 3.226562 -38.03125 3.9375 -38.5 C 4.65625 -38.96875 5.535156 -39.269531 6.578125 -39.40625 C 7.617188 -39.539062 8.859375 -39.609375 10.296875 -39.609375 C 11.765625 -39.609375 13.015625 -39.550781 14.046875 -39.4375 C 15.078125 -39.332031 15.945312 -39.101562 16.65625 -38.75 C 17.375 -38.394531 17.9375 -37.875 18.34375 -37.1875 C 18.757812 -36.507812 19.078125 -35.597656 19.296875 -34.453125 C 19.515625 -33.316406 19.65625 -31.910156 19.71875 -30.234375 C 19.789062 -28.566406 19.828125 -26.554688 19.828125 -24.203125 C 19.828125 -21.847656 19.832031 -19.828125 19.84375 -18.140625 C 19.851562 -16.460938 19.875 -15.050781 19.90625 -13.90625 C 19.9375 -12.769531 19.984375 -11.859375 20.046875 -11.171875 C 20.117188 -10.492188 20.203125 -9.976562 20.296875 -9.625 C 20.398438 -9.269531 20.53125 -9.035156 20.6875 -8.921875 C 20.851562 -8.816406 21.046875 -8.765625 21.265625 -8.765625 C 21.578125 -8.765625 21.828125 -8.722656 22.015625 -8.640625 C 22.203125 -8.554688 22.335938 -8.363281 22.421875 -8.0625 C 22.515625 -7.769531 22.578125 -7.332031 22.609375 -6.75 C 22.640625 -6.164062 22.65625 -5.378906 22.65625 -4.390625 Z M 10.296875 -8.765625 C 10.484375 -8.765625 10.625 -8.867188 10.71875 -9.078125 C 10.820312 -9.285156 10.898438 -9.757812 10.953125 -10.5 C 11.015625 -11.238281 11.050781 -12.34375 11.0625 -13.8125 C 11.070312 -15.289062 11.078125 -17.289062 11.078125 -19.8125 C 11.078125 -22.34375 11.070312 -24.335938 11.0625 -25.796875 C 11.050781 -27.265625 11.015625 -28.367188 10.953125 -29.109375 C 10.898438 -29.859375 10.820312 -30.335938 10.71875 -30.546875 C 10.625 -30.753906 10.484375 -30.859375 10.296875 -30.859375 C 10.117188 -30.859375 9.976562 -30.753906 9.875 -30.546875 C 9.78125 -30.335938 9.703125 -29.859375 9.640625 -29.109375 C 9.585938 -28.367188 9.554688 -27.265625 9.546875 -25.796875 C 9.535156 -24.335938 9.53125 -22.34375 9.53125 -19.8125 C 9.53125 -17.289062 9.535156 -15.289062 9.546875 -13.8125 C 9.554688 -12.34375 9.585938 -11.238281 9.640625 -10.5 C 9.703125 -9.757812 9.78125 -9.285156 9.875 -9.078125 C 9.976562 -8.867188 10.117188 -8.765625 10.296875 -8.765625 Z M 10.296875 -8.765625 "/></g></g></g><g fill="#ffffff" fill-opacity="1"><g transform="translate(242.368848, 318.187631)"><g><path d="M -2.171875 0 L -2.171875 -8.765625 L -0.65625 -8.765625 C -0.4375 -8.765625 -0.25 -8.816406 -0.09375 -8.921875 C 0.0507812 -9.035156 0.175781 -9.269531 0.28125 -9.625 C 0.394531 -9.976562 0.476562 -10.492188 0.53125 -11.171875 C 0.59375 -11.859375 0.640625 -12.769531 0.671875 -13.90625 C 0.703125 -15.050781 0.722656 -16.460938 0.734375 -18.140625 C 0.742188 -19.828125 0.75 -21.847656 0.75 -24.203125 C 0.75 -26.554688 0.78125 -28.566406 0.84375 -30.234375 C 0.914062 -31.910156 1.0625 -33.316406 1.28125 -34.453125 C 1.5 -35.597656 1.8125 -36.507812 2.21875 -37.1875 C 2.632812 -37.875 3.195312 -38.394531 3.90625 -38.75 C 4.625 -39.101562 5.503906 -39.332031 6.546875 -39.4375 C 7.585938 -39.550781 8.832031 -39.609375 10.28125 -39.609375 C 11.71875 -39.609375 12.957031 -39.554688 14 -39.453125 C 15.039062 -39.359375 15.910156 -39.140625 16.609375 -38.796875 C 17.316406 -38.453125 17.878906 -37.957031 18.296875 -37.3125 C 18.710938 -36.664062 19.023438 -35.796875 19.234375 -34.703125 C 19.453125 -33.617188 19.597656 -32.28125 19.671875 -30.6875 C 19.742188 -29.09375 19.78125 -27.175781 19.78125 -24.9375 C 19.78125 -22.707031 19.765625 -20.796875 19.734375 -19.203125 C 19.703125 -17.609375 19.632812 -16.265625 19.53125 -15.171875 C 19.4375 -14.085938 19.289062 -13.222656 19.09375 -12.578125 C 18.894531 -11.929688 18.628906 -11.4375 18.296875 -11.09375 C 17.972656 -10.75 17.570312 -10.523438 17.09375 -10.421875 C 16.625 -10.328125 16.0625 -10.28125 15.40625 -10.28125 C 14.394531 -10.28125 13.597656 -10.375 13.015625 -10.5625 C 12.429688 -10.75 11.988281 -11.191406 11.6875 -11.890625 C 11.394531 -12.597656 11.207031 -13.632812 11.125 -15 C 11.050781 -16.363281 11.015625 -18.222656 11.015625 -20.578125 C 11.015625 -22.929688 11.007812 -24.789062 11 -26.15625 C 10.988281 -27.519531 10.953125 -28.546875 10.890625 -29.234375 C 10.835938 -29.929688 10.757812 -30.375 10.65625 -30.5625 C 10.5625 -30.757812 10.425781 -30.859375 10.25 -30.859375 C 10.070312 -30.859375 9.929688 -30.753906 9.828125 -30.546875 C 9.734375 -30.335938 9.65625 -29.859375 9.59375 -29.109375 C 9.53125 -28.367188 9.492188 -27.265625 9.484375 -25.796875 C 9.472656 -24.335938 9.46875 -22.34375 9.46875 -19.8125 C 9.46875 -17.289062 9.523438 -15.289062 9.640625 -13.8125 C 9.765625 -12.34375 10.050781 -11.238281 10.5 -10.5 C 10.945312 -9.757812 11.601562 -9.285156 12.46875 -9.078125 C 13.34375 -8.867188 14.53125 -8.765625 16.03125 -8.765625 L 22.59375 -8.765625 L 22.59375 0 Z M -2.171875 0 "/></g></g></g><g fill="#ffffff" fill-opacity="1"><g transform="translate(262.913223, 318.187631)"><g><path d="M 0.75 -24.203125 C 0.75 -26.554688 0.757812 -28.570312 0.78125 -30.25 C 0.8125 -31.9375 0.875 -33.347656 0.96875 -34.484375 C 1.070312 -35.628906 1.222656 -36.539062 1.421875 -37.21875 C 1.617188 -37.90625 1.875 -38.425781 2.1875 -38.78125 C 2.507812 -39.132812 2.90625 -39.363281 3.375 -39.46875 C 3.851562 -39.582031 4.429688 -39.640625 5.109375 -39.640625 C 5.773438 -39.640625 6.347656 -39.582031 6.828125 -39.46875 C 7.304688 -39.363281 7.703125 -39.132812 8.015625 -38.78125 C 8.335938 -38.425781 8.597656 -37.90625 8.796875 -37.21875 C 8.992188 -36.539062 9.140625 -35.628906 9.234375 -34.484375 C 9.335938 -33.347656 9.398438 -31.9375 9.421875 -30.25 C 9.453125 -28.570312 9.46875 -26.554688 9.46875 -24.203125 C 9.46875 -21.847656 9.472656 -19.828125 9.484375 -18.140625 C 9.492188 -16.460938 9.503906 -15.050781 9.515625 -13.90625 C 9.523438 -12.769531 9.550781 -11.859375 9.59375 -11.171875 C 9.632812 -10.492188 9.675781 -9.976562 9.71875 -9.625 C 9.769531 -9.269531 9.835938 -9.035156 9.921875 -8.921875 C 10.015625 -8.816406 10.125 -8.765625 10.25 -8.765625 C 10.363281 -8.765625 10.460938 -8.816406 10.546875 -8.921875 C 10.640625 -9.035156 10.710938 -9.269531 10.765625 -9.625 C 10.816406 -9.976562 10.859375 -10.492188 10.890625 -11.171875 C 10.929688 -11.859375 10.957031 -12.769531 10.96875 -13.90625 C 10.976562 -15.050781 10.988281 -16.460938 11 -18.140625 C 11.007812 -19.828125 11.015625 -21.847656 11.015625 -24.203125 C 11.015625 -26.554688 11.03125 -28.570312 11.0625 -30.25 C 11.09375 -31.9375 11.160156 -33.347656 11.265625 -34.484375 C 11.378906 -35.628906 11.53125 -36.539062 11.71875 -37.21875 C 11.90625 -37.90625 12.160156 -38.425781 12.484375 -38.78125 C 12.804688 -39.132812 13.207031 -39.363281 13.6875 -39.46875 C 14.164062 -39.582031 14.738281 -39.640625 15.40625 -39.640625 C 16.082031 -39.640625 16.648438 -39.582031 17.109375 -39.46875 C 17.578125 -39.363281 17.972656 -39.132812 18.296875 -38.78125 C 18.628906 -38.425781 18.894531 -37.90625 19.09375 -37.21875 C 19.289062 -36.539062 19.4375 -35.628906 19.53125 -34.484375 C 19.632812 -33.347656 19.703125 -31.9375 19.734375 -30.25 C 19.765625 -28.570312 19.78125 -26.554688 19.78125 -24.203125 C 19.78125 -21.847656 19.785156 -19.828125 19.796875 -18.140625 C 19.804688 -16.460938 19.8125 -15.050781 19.8125 -13.90625 C 19.820312 -12.769531 19.847656 -11.859375 19.890625 -11.171875 C 19.929688 -10.492188 19.976562 -9.976562 20.03125 -9.625 C 20.082031 -9.269531 20.148438 -9.035156 20.234375 -8.921875 C 20.328125 -8.816406 20.429688 -8.765625 20.546875 -8.765625 C 20.660156 -8.765625 20.757812 -8.816406 20.84375 -8.921875 C 20.925781 -9.035156 20.988281 -9.269531 21.03125 -9.625 C 21.082031 -9.976562 21.128906 -10.492188 21.171875 -11.171875 C 21.210938 -11.859375 21.238281 -12.769531 21.25 -13.90625 C 21.257812 -15.050781 21.269531 -16.460938 21.28125 -18.140625 C 21.289062 -19.828125 21.296875 -21.847656 21.296875 -24.203125 C 21.296875 -26.554688 21.304688 -28.570312 21.328125 -30.25 C 21.359375 -31.9375 21.425781 -33.347656 21.53125 -34.484375 C 21.644531 -35.628906 21.796875 -36.539062 21.984375 -37.21875 C 22.171875 -37.90625 22.425781 -38.425781 22.75 -38.78125 C 23.082031 -39.132812 23.484375 -39.363281 23.953125 -39.46875 C 24.429688 -39.582031 25.007812 -39.640625 25.6875 -39.640625 C 26.351562 -39.640625 26.921875 -39.582031 27.390625 -39.46875 C 27.859375 -39.363281 28.253906 -39.132812 28.578125 -38.78125 C 28.898438 -38.425781 29.160156 -37.90625 29.359375 -37.21875 C 29.554688 -36.539062 29.703125 -35.628906 29.796875 -34.484375 C 29.898438 -33.347656 29.96875 -31.9375 30 -30.25 C 30.03125 -28.570312 30.046875 -26.554688 30.046875 -24.203125 C 30.046875 -21.847656 30.050781 -19.828125 30.0625 -18.140625 C 30.070312 -16.460938 30.09375 -15.050781 30.125 -13.90625 C 30.15625 -12.769531 30.203125 -11.859375 30.265625 -11.171875 C 30.335938 -10.492188 30.421875 -9.976562 30.515625 -9.625 C 30.617188 -9.269531 30.75 -9.035156 30.90625 -8.921875 C 31.070312 -8.816406 31.257812 -8.765625 31.46875 -8.765625 L 33.046875 -8.765625 L 33.046875 0 L -2.3125 0 L -2.3125 -8.765625 L -0.65625 -8.765625 C -0.4375 -8.765625 -0.25 -8.816406 -0.09375 -8.921875 C 0.0507812 -9.035156 0.175781 -9.269531 0.28125 -9.625 C 0.394531 -9.976562 0.476562 -10.492188 0.53125 -11.171875 C 0.59375 -11.859375 0.640625 -12.769531 0.671875 -13.90625 C 0.703125 -15.050781 0.722656 -16.460938 0.734375 -18.140625 C 0.742188 -19.828125 0.75 -21.847656 0.75 -24.203125 Z M 0.75 -24.203125 "/></g></g></g><g fill="#ffffff" fill-opacity="1"><g transform="translate(293.729785, 318.187631)"><g><path d="M 9.5 -30.109375 C 9.5 -25.597656 9.476562 -21.722656 9.4375 -18.484375 C 9.40625 -15.242188 9.320312 -12.507812 9.1875 -10.28125 C 9.0625 -8.0625 8.878906 -6.28125 8.640625 -4.9375 C 8.398438 -3.601562 8.078125 -2.570312 7.671875 -1.84375 C 7.265625 -1.113281 6.757812 -0.628906 6.15625 -0.390625 C 5.550781 -0.148438 4.835938 -0.0195312 4.015625 0 L -2.046875 0 L -2.046875 -8.765625 L -0.65625 -8.765625 C -0.4375 -8.765625 -0.25 -8.851562 -0.09375 -9.03125 C 0.0507812 -9.207031 0.175781 -9.59375 0.28125 -10.1875 C 0.394531 -10.78125 0.476562 -11.644531 0.53125 -12.78125 C 0.59375 -13.914062 0.640625 -15.429688 0.671875 -17.328125 C 0.703125 -19.234375 0.722656 -21.585938 0.734375 -24.390625 C 0.742188 -27.191406 0.75 -30.550781 0.75 -34.46875 C 0.75 -38.394531 0.757812 -41.753906 0.78125 -44.546875 C 0.8125 -47.347656 0.878906 -49.695312 0.984375 -51.59375 C 1.097656 -53.5 1.25 -55.019531 1.4375 -56.15625 C 1.625 -57.300781 1.878906 -58.171875 2.203125 -58.765625 C 2.535156 -59.359375 2.9375 -59.742188 3.40625 -59.921875 C 3.882812 -60.097656 4.460938 -60.1875 5.140625 -60.1875 C 5.804688 -60.1875 6.375 -60.082031 6.84375 -59.875 C 7.3125 -59.664062 7.707031 -59.207031 8.03125 -58.5 C 8.351562 -57.800781 8.613281 -56.789062 8.8125 -55.46875 C 9.007812 -54.144531 9.15625 -52.367188 9.25 -50.140625 C 9.351562 -47.910156 9.421875 -45.160156 9.453125 -41.890625 C 9.484375 -38.628906 9.5 -34.703125 9.5 -30.109375 Z M 9.5 -30.109375 "/></g></g></g><g fill="#ffffff" fill-opacity="1"><g transform="translate(304.001972, 318.187631)"><g><path d="M 5.140625 -60.15625 C 5.804688 -60.15625 6.378906 -60.050781 6.859375 -59.84375 C 7.335938 -59.632812 7.734375 -59.175781 8.046875 -58.46875 C 8.359375 -57.769531 8.613281 -56.757812 8.8125 -55.4375 C 9.007812 -54.113281 9.15625 -52.335938 9.25 -50.109375 C 9.351562 -47.878906 9.421875 -45.128906 9.453125 -41.859375 C 9.484375 -38.597656 9.5 -34.671875 9.5 -30.078125 C 9.5 -25.484375 9.484375 -21.550781 9.453125 -18.28125 C 9.421875 -15.019531 9.351562 -12.273438 9.25 -10.046875 C 9.15625 -7.816406 9.007812 -6.039062 8.8125 -4.71875 C 8.613281 -3.394531 8.359375 -2.378906 8.046875 -1.671875 C 7.734375 -0.972656 7.335938 -0.519531 6.859375 -0.3125 C 6.378906 -0.101562 5.804688 0 5.140625 0 C 4.460938 0 3.882812 -0.101562 3.40625 -0.3125 C 2.9375 -0.519531 2.539062 -0.972656 2.21875 -1.671875 C 1.90625 -2.378906 1.648438 -3.394531 1.453125 -4.71875 C 1.253906 -6.039062 1.101562 -7.816406 1 -10.046875 C 0.90625 -12.273438 0.84375 -15.019531 0.8125 -18.28125 C 0.78125 -21.550781 0.765625 -25.484375 0.765625 -30.078125 C 0.765625 -34.671875 0.78125 -38.597656 0.8125 -41.859375 C 0.84375 -45.128906 0.90625 -47.878906 1 -50.109375 C 1.101562 -52.335938 1.253906 -54.113281 1.453125 -55.4375 C 1.648438 -56.757812 1.90625 -57.769531 2.21875 -58.46875 C 2.539062 -59.175781 2.9375 -59.632812 3.40625 -59.84375 C 3.882812 -60.050781 4.460938 -60.15625 5.140625 -60.15625 Z M 5.140625 -60.15625 "/></g></g></g><g fill="#ffffff" fill-opacity="1"><g transform="translate(314.289745, 318.187631)"><g/></g></g></svg>